<?xml version="1.0" standalone="no"?>
<!DOCTYPE svg PUBLIC "-//W3C//DTD SVG 20010904//EN"
 "http://www.w3.org/TR/2001/REC-SVG-20010904/DTD/svg10.dtd">
<svg version="1.0" xmlns="http://www.w3.org/2000/svg"
 width="1024.000000pt" height="1024.000000pt" viewBox="0 0 1024.000000 1024.000000"
 preserveAspectRatio="xMidYMid meet">

<g transform="translate(0.000000,1024.000000) scale(0.100000,-0.100000)"
fill="#000000" stroke="none">
<path d="M4790 9559 c-650 -53 -1304 -283 -1861 -656 -462 -309 -892 -763
-1182 -1247 -152 -256 -285 -538 -367 -784 -43 -130 -115 -418 -145 -582 -57
-313 -57 -319 -62 -1027 -3 -365 -1 -663 4 -663 4 0 175 61 378 136 580 212
834 300 933 321 24 6 107 -26 96 -36 -3 -3 40 -11 95 -17 80 -9 114 -17 166
-44 77 -39 144 -93 128 -103 -7 -4 -32 11 -57 33 -71 60 -119 71 -337 71 -102
0 -194 -3 -205 -6 -18 -6 -18 -6 1 11 16 13 16 15 3 11 -9 -3 -36 -11 -60 -17
-24 -7 -51 -16 -60 -21 -19 -10 -13 -39 8 -39 18 0 116 -60 112 -69 -69 -128
-190 -418 -186 -444 3 -20 10 -23 73 -27 l70 -5 -3 -43 c-3 -46 -12 -37 134
-127 20 -13 17 -17 -71 -107 -212 -214 -290 -407 -290 -713 0 -124 4 -163 23
-227 30 -107 99 -260 151 -336 52 -77 168 -195 235 -240 48 -31 48 -32 20 -32
-74 0 -492 -22 -694 -35 -282 -20 -515 -43 -507 -52 8 -7 436 -22 659 -23 150
-1 221 -5 231 -13 7 -7 57 -67 110 -134 238 -301 493 -540 837 -780 536 -376
1195 -640 1826 -733 144 -21 186 -18 425 30 417 85 748 199 1128 389 561 282
1138 758 1410 1163 l51 78 208 -3 c253 -4 617 9 732 25 l85 12 -60 7 c-125 16
-429 30 -658 30 l-238 1 73 50 c255 175 399 352 466 568 46 152 54 423 16 570
-39 153 -146 333 -264 444 -86 81 -177 134 -327 192 -65 25 -122 49 -126 53
-8 8 43 24 121 36 23 4 40 10 37 15 -3 4 -42 21 -88 38 -213 77 -489 76 -741
-2 -44 -14 -83 -23 -88 -20 -7 4 -36 57 -136 247 -27 51 -37 79 -29 81 55 13
140 47 235 94 l113 55 90 -5 c62 -4 95 -10 107 -21 18 -17 315 -97 357 -97 29
0 96 40 92 55 -6 20 -220 162 -350 231 -221 120 -268 137 -377 144 l-95 5 60
9 c33 4 72 14 87 22 15 8 36 14 47 14 11 0 22 4 25 9 6 9 -38 192 -51 215 -22
38 -86 106 -161 169 -92 77 -212 167 -223 167 -3 0 -135 133 -292 295 -304
313 -316 329 -288 392 14 31 80 113 91 113 4 0 43 -44 86 -97 44 -53 124 -151
180 -218 193 -231 571 -721 611 -791 18 -33 63 -206 63 -246 0 -5 -14 -14 -31
-20 l-30 -10 53 -22 c29 -12 138 -66 241 -119 168 -87 209 -104 400 -161 116
-36 400 -128 631 -205 l418 -140 -5 622 c-4 485 -8 652 -21 757 -86 714 -292
1290 -659 1840 -123 184 -182 261 -334 430 -282 316 -635 606 -958 787 -399
224 -643 323 -1030 418 -220 55 -400 85 -615 104 -133 13 -517 12 -670 0z
m660 -270 c420 -39 866 -164 1249 -350 377 -183 638 -363 955 -660 341 -319
678 -815 858 -1264 42 -106 128 -351 128 -367 0 -16 -394 319 -900 767 -74 66
-168 148 -207 183 l-72 63 -120 -7 -120 -7 -58 44 c-32 24 -138 108 -236 186
-97 79 -179 143 -182 143 -2 0 -98 -62 -213 -138 -114 -76 -223 -144 -240
-151 -39 -16 -11 -36 -330 234 -118 99 -219 184 -226 189 -9 6 -56 -10 -142
-47 -128 -55 -128 -56 -153 -37 -15 10 -154 140 -311 289 -156 149 -287 271
-290 271 -3 0 -93 -77 -200 -171 -107 -94 -232 -202 -276 -240 l-82 -69 -158
-35 -159 -35 -68 -73 c-37 -39 -161 -177 -274 -305 -204 -232 -205 -233 -227
-215 -11 10 -53 47 -91 83 -138 128 -266 240 -274 240 -8 0 -215 -146 -383
-271 -63 -46 -115 -75 -188 -103 l-102 -38 -346 -348 c-191 -191 -362 -357
-381 -370 l-33 -23 7 34 c15 68 145 388 210 519 301 602 740 1101 1290 1470
362 242 736 409 1155 515 207 52 330 72 610 98 87 9 476 6 580 -4z m-330
-1084 c118 -112 236 -225 262 -252 l47 -48 -83 -95 c-46 -53 -140 -185 -213
-300 -125 -195 -445 -720 -439 -720 3 0 266 290 427 469 174 195 422 488 515
607 53 68 98 124 100 124 3 0 391 -330 447 -380 4 -3 -97 -97 -225 -207 -663
-570 -859 -740 -1140 -990 -170 -151 -308 -276 -308 -278 0 -6 688 454 847
567 214 150 734 525 842 607 l33 25 -32 -64 c-35 -70 -113 -209 -139 -250 -21
-32 -25 -35 197 128 242 175 419 317 426 339 3 10 19 96 35 192 16 95 31 175
33 176 2 2 58 -40 124 -93 67 -53 191 -151 277 -217 l156 -120 47 -108 c26
-59 50 -110 54 -112 4 -3 11 28 15 68 10 105 29 200 40 204 12 3 309 -249 568
-482 98 -88 233 -207 301 -265 67 -58 163 -141 212 -185 49 -44 107 -95 128
-114 l40 -33 13 -117 c12 -107 12 -117 -4 -128 -9 -7 -28 -13 -42 -13 -41 1
-125 26 -129 38 -2 6 8 23 22 37 33 33 33 38 -4 33 -44 -7 -59 16 -26 37 32
21 33 35 3 35 -24 0 -25 2 -54 100 -6 23 -21 -6 -29 -57 -5 -33 -11 -43 -25
-43 -10 0 -21 -4 -24 -10 -3 -5 0 -10 8 -10 13 0 34 -47 25 -55 -2 -2 -19 -8
-38 -13 l-35 -10 32 -7 c18 -4 30 -11 28 -16 -3 -4 0 -11 6 -15 17 -10 -27
-32 -81 -39 -77 -11 -77 -16 -5 -37 38 -10 71 -21 74 -23 6 -7 -39 -43 -81
-65 -46 -24 -98 -25 -156 -3 -40 15 -43 18 -26 30 10 7 25 13 33 13 9 1 30 12
46 26 l30 26 -32 -7 c-20 -4 -42 -1 -60 8 l-28 15 27 12 c50 23 44 51 -12 52
-37 1 -38 10 -4 37 l26 20 -33 13 c-30 13 -31 15 -15 30 13 13 14 19 3 25 -7
4 -18 19 -24 33 -11 24 -12 24 -12 3 -1 -12 -9 -26 -18 -32 -15 -8 -16 -12 -5
-22 18 -19 15 -29 -8 -29 -25 0 -25 -11 1 -44 18 -23 19 -27 5 -32 -9 -4 -25
-4 -37 -1 -28 8 -21 -25 9 -38 34 -15 20 -30 -27 -28 -43 2 -51 -6 -26 -27 20
-17 19 -30 -2 -31 -10 -1 0 -5 22 -8 55 -8 51 -29 -10 -52 -57 -22 -92 -46
-82 -55 4 -4 28 -13 54 -20 l48 -13 -50 0 c-30 0 -68 8 -95 20 l-45 20 69 25
c38 13 71 26 74 29 5 5 -43 25 -60 25 -17 0 -78 23 -78 30 1 3 15 14 33 25 39
25 47 64 10 57 -13 -2 -36 1 -52 8 l-30 12 47 44 47 44 -42 0 c-46 0 -65 17
-40 35 23 17 21 24 -8 35 -19 7 -25 17 -25 42 -1 18 -7 55 -14 82 -15 56 -19
48 -31 -57 -4 -31 -13 -61 -19 -65 -16 -9 -28 -42 -17 -42 5 0 11 -6 14 -14 4
-10 -4 -12 -39 -8 -46 5 -60 -9 -25 -27 10 -6 26 -22 36 -37 17 -26 17 -28 -1
-41 -10 -7 -30 -13 -46 -13 -15 0 -28 -4 -28 -9 0 -5 -9 -11 -20 -14 -30 -8
-24 -24 13 -30 17 -3 46 -11 62 -17 l30 -12 -38 -14 c-21 -7 -51 -22 -66 -34
-16 -11 -35 -20 -43 -20 -8 0 -19 -5 -26 -12 -9 -9 -15 -9 -24 0 -9 9 -9 15 0
24 17 17 15 38 -4 38 -13 0 -14 3 -4 14 6 8 18 12 26 9 8 -3 14 0 14 6 0 6 -6
11 -14 11 -7 0 -20 7 -27 16 -11 14 -11 18 4 29 16 12 16 13 -3 18 -12 3 -20
13 -20 25 0 33 -17 34 -24 2 -3 -20 -12 -30 -23 -30 -16 -1 -15 -3 5 -19 28
-25 28 -31 -3 -31 -31 0 -32 -15 -3 -31 l23 -12 -28 -10 c-32 -10 -34 -21 -7
-40 27 -19 15 -27 -37 -27 -52 0 -55 -14 -8 -37 19 -9 35 -20 35 -24 0 -9 -38
-19 -80 -19 l-35 -1 35 -29 c20 -17 47 -30 63 -30 15 0 27 -4 27 -10 0 -12
-11 -13 -65 -11 -55 3 -81 -23 -65 -65 14 -36 26 -43 75 -45 32 -2 34 -3 12
-6 -21 -3 -32 -13 -43 -39 -14 -33 -14 -35 13 -59 20 -17 23 -24 13 -25 -20 0
-78 59 -127 131 -85 124 -318 423 -553 709 -69 84 -140 172 -158 195 l-33 43
25 20 c31 24 23 36 -13 18 -29 -16 -108 -103 -140 -157 -47 -77 -27 -116 171
-333 84 -93 154 -172 156 -176 1 -3 -9 -13 -24 -20 -48 -26 -48 -42 1 -137 43
-85 55 -123 36 -123 -4 0 -61 -32 -126 -71 -65 -39 -125 -69 -134 -66 -9 3
-47 17 -84 31 l-68 26 3 -26 c2 -15 10 -30 18 -34 8 -4 38 -18 65 -31 49 -23
49 -23 20 -27 -16 -2 -53 -1 -81 3 -48 6 -54 10 -93 62 -29 39 -41 65 -39 82
3 23 9 27 50 31 51 6 107 51 129 102 14 34 -17 108 -52 124 -13 7 -35 17 -49
23 -24 11 -24 11 6 7 18 -3 34 -2 37 1 10 10 -22 62 -49 80 -25 16 -26 16 -48
-12 l-22 -28 -33 34 c-43 44 -52 67 -96 234 -27 104 -42 145 -59 160 -13 11
-28 35 -34 53 -24 71 -95 132 -152 132 -56 0 -74 -26 -78 -115 -5 -85 19 -152
63 -181 23 -15 33 -16 97 -4 84 15 79 19 108 -103 21 -91 37 -131 75 -182 22
-29 22 -30 4 -49 -16 -16 -19 -17 -19 -4 0 9 6 18 12 20 8 3 4 9 -10 17 -17 9
-22 9 -22 0 0 -7 -3 -9 -7 -6 -3 4 -12 2 -19 -4 -9 -7 -14 -5 -19 10 -4 12
-15 21 -26 21 -25 0 -77 -26 -105 -52 -21 -19 -25 -19 -105 -3 -45 8 -91 13
-101 10 -25 -9 -44 -78 -30 -109 8 -19 23 -27 69 -36 104 -20 107 -22 113 -66
l5 -39 55 0 c43 0 62 -5 85 -23 22 -17 39 -22 68 -20 l39 3 23 -62 c12 -34 30
-74 40 -89 l17 -27 -37 7 c-36 7 -37 6 -30 -16 4 -13 9 -36 12 -53 5 -25 4
-28 -9 -18 -28 24 -244 101 -358 128 -150 36 -194 31 -318 -30 -213 -106 -488
-357 -612 -559 -27 -43 -51 -83 -52 -87 -11 -33 -477 -44 -632 -14 -126 23
-151 35 -177 87 -54 107 -101 136 -297 184 -79 20 -111 32 -108 41 4 9 -8 13
-42 13 -42 1 -45 2 -29 14 10 8 59 29 109 47 103 37 105 33 -37 75 -49 14 -94
30 -99 35 -5 4 1 5 14 2 16 -4 21 -3 16 5 -5 8 2 12 19 12 14 0 28 7 31 15 3
8 31 27 62 42 l57 28 -94 3 c-89 3 -121 12 -121 34 0 5 10 8 23 7 24 -3 76 21
96 45 10 12 9 14 -6 10 -10 -3 -45 2 -78 11 -38 9 -46 13 -22 11 21 -3 35 -1
32 4 -3 5 21 23 54 39 86 44 88 55 8 47 -54 -6 -74 -4 -110 12 -65 29 -64 38
3 51 33 7 60 16 60 20 0 5 -30 17 -66 27 -54 14 -62 19 -47 27 10 6 23 18 30
27 7 10 33 23 57 30 25 7 43 16 41 20 -3 5 -28 11 -55 15 -27 4 -52 11 -56 16
-3 5 1 6 9 3 8 -3 18 -1 21 5 3 5 -8 13 -26 16 -51 11 -54 16 -22 42 l29 23
-27 0 c-34 0 -37 15 -5 24 l22 7 -21 9 c-21 8 -33 44 -35 104 0 23 -4 16 -15
-29 -8 -33 -22 -66 -31 -72 -16 -12 -16 -13 0 -13 23 0 21 -17 -3 -25 -23 -7
-27 -25 -5 -25 19 0 19 -16 0 -24 -8 -3 -14 -11 -13 -17 2 -6 -4 -14 -12 -16
-13 -4 -13 -3 0 6 8 6 11 11 6 11 -5 0 -18 -8 -28 -17 -17 -15 -22 -15 -66 -1
l-47 15 63 18 c67 20 81 35 32 35 -38 0 -110 36 -110 54 0 9 22 21 55 31 60
17 70 32 28 40 -79 16 -104 27 -112 48 -7 19 -3 24 30 40 46 21 58 37 27 37
-32 0 -68 11 -68 20 0 4 11 11 25 14 26 7 35 26 12 26 -7 0 -22 7 -33 15 -19
14 -19 15 4 21 27 8 29 24 3 24 -16 0 -21 12 -31 70 -6 39 -15 70 -19 70 -4 0
-13 -30 -21 -66 -9 -50 -17 -68 -31 -71 -23 -6 -25 -23 -4 -23 27 0 16 -26
-17 -42 l-33 -15 33 -7 c17 -4 32 -12 32 -17 0 -12 -44 -29 -78 -30 -23 0 -20
-3 17 -17 66 -25 65 -44 -2 -75 -29 -13 -43 -15 -58 -6 -26 13 -36 5 -19 -16
17 -21 75 -45 109 -45 24 -1 23 -2 -14 -21 -22 -10 -44 -24 -49 -29 -16 -16
-82 -11 -149 11 -68 22 -101 45 -76 52 14 4 59 20 117 41 39 15 32 26 -16 26
-49 0 -109 20 -129 43 -18 19 -17 20 7 14 14 -3 32 -2 40 3 12 7 10 11 -9 18
-21 8 -20 9 20 21 24 7 55 19 68 25 21 12 17 14 -57 30 -81 17 -114 42 -72 53
26 7 26 23 1 23 -31 0 -36 21 -11 40 14 11 18 19 11 21 -7 3 27 31 75 64 163
111 538 403 989 770 116 94 215 174 222 178 14 9 -97 -210 -167 -328 -26 -44
-72 -123 -102 -175 -30 -52 -72 -122 -92 -155 l-38 -60 48 50 c192 203 584
600 758 767 l208 202 -72 -145 c-65 -128 -311 -570 -377 -674 l-25 -40 25 25
c22 22 109 123 372 430 44 51 132 155 195 232 l116 138 -58 120 -58 120 79
178 c43 97 88 199 100 225 l21 49 32 -27 c18 -15 130 -119 248 -230z m-1930
-696 c74 -78 137 -146 138 -151 5 -10 -85 -110 -318 -353 -95 -99 -227 -241
-293 -315 -67 -74 -124 -136 -129 -138 -4 -2 -10 15 -14 37 -9 55 -20 52 -27
-6 -2 -27 -8 -57 -12 -67 -6 -15 -5 -17 5 -11 9 5 11 4 6 -3 -4 -7 -14 -12
-22 -12 -19 0 -18 -16 1 -24 23 -9 18 -23 -12 -34 l-28 -9 27 -13 27 -13 -23
-18 c-13 -10 -51 -26 -85 -35 -34 -10 -58 -20 -54 -24 4 -4 30 -13 57 -20 45
-12 47 -14 30 -28 -18 -13 -17 -14 13 -10 27 4 31 2 21 -9 -16 -20 -74 -48
-128 -64 l-45 -12 55 -18 c30 -10 65 -18 78 -18 12 -1 22 -5 22 -11 0 -14 -84
-60 -111 -60 -28 0 -72 -27 -64 -40 3 -4 24 -11 48 -15 38 -7 40 -9 18 -16
-29 -12 -135 5 -167 26 -28 18 -31 35 -8 35 26 0 94 22 94 30 0 4 -17 16 -37
25 -88 41 -113 75 -56 75 21 0 24 2 13 15 -7 8 -18 15 -24 15 -7 0 -17 5 -24
12 -9 9 -6 17 15 34 l28 22 -29 -5 c-20 -4 -27 -2 -22 5 7 12 -14 122 -24 122
-7 0 -34 -88 -35 -114 0 -11 -9 -22 -19 -26 -18 -6 -18 -7 -3 -13 27 -10 20
-37 -14 -49 -35 -12 -28 -25 16 -30 l30 -3 -38 -22 c-21 -13 -46 -23 -56 -23
-27 0 -19 -42 10 -57 13 -7 32 -13 41 -13 27 0 10 -27 -24 -39 -71 -25 -160
-9 -214 38 l-34 31 33 14 c34 14 49 18 102 32 l30 7 -30 8 c-56 14 -106 36
-123 52 -15 16 -15 17 1 17 9 0 17 5 17 10 0 6 -7 10 -15 10 -8 0 -15 4 -15
10 0 9 10 13 65 23 l20 4 -20 7 c-70 25 -90 49 -53 61 22 8 22 8 -5 12 -28 4
-28 5 -11 24 15 17 15 19 1 19 -15 0 -24 23 -51 125 -2 6 -6 -13 -10 -42 -3
-29 -11 -55 -17 -59 -6 -3 -8 -19 -5 -35 5 -24 2 -28 -22 -31 l-27 -4 27 -12
c47 -20 16 -51 -50 -52 -37 0 -17 -17 30 -25 l43 -7 -35 -16 c-31 -14 -33 -16
-12 -20 30 -5 28 -20 -5 -33 -30 -11 -146 -40 -149 -36 -3 4 26 214 37 259 11
46 13 49 347 309 318 248 587 448 605 449 16 0 -214 -319 -401 -555 -52 -66
-82 -108 -66 -94 16 14 117 105 224 201 107 96 237 211 288 255 68 58 112 107
160 176 192 276 348 496 352 497 3 0 66 -64 140 -141z m2681 -912 c19 -12 45
-44 58 -70 29 -59 21 -73 -10 -18 -23 42 -46 61 -109 93 l-35 17 31 1 c17 0
46 -10 65 -23z m-3261 -81 c0 -3 -4 -8 -10 -11 -5 -3 -10 -1 -10 4 0 6 5 11
10 11 6 0 10 -2 10 -4z m-1010 -395 c0 -5 12 -11 27 -13 76 -9 6 -78 -79 -78
l-48 0 0 50 0 50 50 0 c28 0 50 -4 50 -9z m611 -9 c-7 -2 -18 1 -23 6 -8 8 -4
9 13 5 13 -4 18 -8 10 -11z m-144 2 c-3 -3 -12 -4 -19 -1 -8 3 -5 6 6 6 11 1
17 -2 13 -5z m6681 -48 l3 -49 -55 6 c-53 5 -136 41 -136 59 0 4 10 10 23 13
58 14 114 23 137 22 23 -2 25 -7 28 -51z m-5910 -55 c9 -5 30 -14 46 -21 24
-9 27 -13 15 -21 -22 -14 -95 -11 -157 8 l-57 16 45 12 c57 16 86 17 108 6z
m3302 -11 c0 -5 -5 -10 -11 -10 -5 0 -7 5 -4 10 3 6 8 10 11 10 2 0 4 -4 4
-10z m665 -88 c43 -48 69 -78 55 -67 -22 19 -23 19 -17 1 7 -18 6 -18 -19 -2
-16 12 -41 16 -70 15 -43 -3 -46 -1 -74 41 -32 49 -37 69 -18 88 30 30 62 13
143 -76z m-5278 66 c15 -6 48 -14 73 -17 l45 -7 -55 -21 c-106 -40 -100 -40
-100 11 0 52 -1 50 37 34z m6138 -18 c19 -7 19 -8 -5 -18 -14 -5 -47 -9 -75
-9 -40 0 -44 1 -20 6 28 6 29 7 10 19 -17 10 -14 11 25 11 25 0 54 -4 65 -9z
m1086 3 c0 -5 2 -15 4 -24 7 -36 -9 -41 -76 -24 -90 24 -92 28 -19 41 85 15
90 15 91 7z m-6761 -20 c41 -5 43 -6 22 -16 -24 -11 -192 8 -192 22 0 8 93 4
170 -6z m4208 -14 c6 -34 -26 -49 -104 -49 -41 0 -77 -1 -81 -2 -5 -2 -9 7
-11 20 -3 20 1 22 45 23 26 0 64 6 83 13 44 17 64 15 68 -5z m2181 5 c2 -2 -4
-4 -14 -4 -10 0 -37 -9 -59 -20 -39 -18 -43 -18 -91 -2 l-50 17 68 7 c38 3 71
9 74 12 5 5 64 -3 72 -10z m-5998 -9 l34 -14 -45 -2 c-39 -2 -41 -3 -11 -6
l33 -4 -23 -25 c-12 -13 -27 -24 -33 -24 -6 0 -3 5 7 11 19 11 14 31 -6 24 -7
-3 -30 2 -52 10 -22 8 -35 15 -30 16 6 0 -1 5 -15 10 -23 8 -23 8 5 5 17 -3
37 -1 45 5 22 13 53 11 91 -6z m3909 -47 c0 -23 -4 -37 -10 -33 -5 3 -10 -1
-10 -10 0 -10 -7 -15 -17 -13 -13 2 -18 13 -18 38 0 29 4 36 23 38 19 3 21 6
11 18 -10 12 -9 13 5 8 11 -4 16 -18 16 -46z m-3423 -4 c21 -4 24 -7 12 -15
-7 -5 -27 -9 -44 -9 -16 0 -41 -7 -55 -15 -35 -20 -51 -18 -83 8 l-28 22 51 1
c28 0 56 6 62 12 6 6 22 9 35 7 13 -3 35 -8 50 -11z m373 -14 c0 -14 -39 -22
-68 -15 -20 5 -23 8 -12 15 9 6 19 5 24 0 14 -14 26 -12 26 5 0 9 6 12 15 9 8
-4 15 -10 15 -14z m2930 -10 c0 -12 -6 -13 -92 -10 -51 1 -68 -2 -68 -12 0
-10 -2 -10 -9 2 -6 8 -7 18 -5 22 8 12 174 10 174 -2z m2585 -67 c-3 -9 -12
-10 -35 -2 -16 6 -28 15 -25 19 3 4 -11 11 -30 14 -53 10 -42 25 23 28 53 3
57 1 64 -22 5 -14 6 -30 3 -37z m-7165 47 c12 -8 9 -10 -12 -10 -29 0 -46 -15
-26 -23 7 -3 -4 -6 -24 -6 -34 -1 -38 2 -38 24 0 23 4 25 43 25 23 0 49 -5 57
-10z m387 -6 c20 -3 30 -10 29 -20 -1 -8 -6 -15 -10 -16 -10 -1 -120 34 -128
41 -8 7 53 4 109 -5z m5663 6 c12 -8 8 -10 -15 -12 -50 -3 -99 3 -109 13 -13
12 104 12 124 -1z m-1465 -10 c4 -6 -17 -9 -57 -8 l-63 1 55 7 c30 4 56 7 57
8 1 1 5 -2 8 -8z m700 -31 c5 -5 -6 -4 -25 2 -19 6 -42 18 -50 26 -12 12 -7
11 25 -2 22 -9 44 -20 50 -26z m1053 34 c-10 -2 -28 -2 -40 0 -13 2 -5 4 17 4
22 1 32 -1 23 -4z m-5556 -23 c21 0 21 -1 -6 -15 -24 -13 -36 -13 -64 -4 l-35
12 24 12 c15 9 30 10 41 4 9 -5 27 -9 40 -9z m3675 14 c-3 -3 -12 -4 -19 -1
-8 3 -5 6 6 6 11 1 17 -2 13 -5z m1129 -216 c4 -6 -2 -19 -14 -28 -12 -10 -18
-21 -14 -25 4 -4 -20 9 -53 30 -33 21 -79 50 -102 64 -24 14 -43 30 -43 34 0
10 -1 11 68 -26 28 -15 52 -24 52 -20 0 5 4 1 10 -7 5 -8 12 -11 16 -7 8 8 9
7 -116 116 -47 41 -87 78 -88 83 -5 11 275 -199 284 -214z m1126 200 c-42 -19
-72 -19 -72 1 0 12 25 19 75 19 l40 0 -43 -20z m-5478 -7 c6 -9 -26 -21 -58
-21 -15 0 -16 3 -6 15 14 16 56 20 64 6z m5173 3 c-3 -3 -12 -4 -19 -1 -8 3
-5 6 6 6 11 1 17 -2 13 -5z m-5147 -18 c0 -3 -7 -12 -16 -20 -17 -18 -109 -22
-134 -6 -10 6 4 7 40 4 38 -3 63 0 80 10 30 17 30 17 30 12z m360 -16 c0 -5
-12 -10 -27 -9 -25 0 -26 1 -8 9 27 12 35 12 35 0z m2934 -71 c7 -25 22 -63
34 -84 13 -20 20 -40 17 -43 -3 -3 -5 0 -5 6 0 7 -7 12 -16 12 -8 0 -20 14
-26 31 -6 17 -21 51 -34 76 -29 54 -29 55 -3 51 17 -2 25 -14 33 -49z m780 35
c3 -8 2 -12 -4 -9 -6 3 -10 10 -10 16 0 14 7 11 14 -7z m-101 -10 c17 -9 61
-36 97 -59 36 -23 95 -59 131 -78 78 -43 117 -73 107 -82 -4 -4 -76 37 -160
92 -84 55 -168 108 -185 117 -18 9 -33 19 -33 21 0 8 10 6 43 -11z m792 -14
c-3 -5 -11 -10 -16 -10 -6 0 -7 5 -4 10 3 6 11 10 16 10 6 0 7 -4 4 -10z
m-6068 -17 c-11 -3 -16 -11 -13 -19 8 -21 -10 -26 -28 -8 -25 25 -19 34 22 33
20 -1 29 -3 19 -6z m6723 -7 c0 -2 -7 -7 -16 -10 -8 -3 -12 -2 -9 4 6 10 25
14 25 6z m488 -23 c-2 -21 -9 -29 -27 -31 -29 -5 -52 14 -28 23 9 4 13 13 10
21 -4 10 3 14 22 14 23 0 26 -4 23 -27z m-1840 -47 c26 -14 56 -32 67 -41 19
-15 18 -15 -13 0 -19 9 -42 13 -54 9 -11 -3 -18 -2 -15 2 3 5 -17 10 -43 12
-27 1 -51 -2 -55 -8 -3 -5 0 -10 7 -10 7 0 36 -11 63 -25 58 -29 53 -28 -32 4
-59 22 -81 41 -49 41 8 0 24 9 37 20 30 25 31 25 87 -4z m-194 -33 c75 -19
252 -100 249 -113 -2 -5 1 -10 5 -10 5 0 17 -7 28 -15 10 -9 -14 0 -54 20 -40
19 -127 58 -194 85 -67 28 -124 53 -127 57 -3 3 3 3 14 -1 11 -4 46 -14 79
-23z m-963 -47 c228 -75 339 -127 339 -159 0 -5 -8 -6 -17 -2 -53 20 -410 106
-475 115 -49 6 -107 6 -159 0 -46 -5 -84 -8 -86 -6 -11 11 183 105 218 106 8
0 89 -24 180 -54z m1139 34 c22 -11 40 -23 40 -25 0 -3 -17 3 -37 13 -21 11
-45 22 -53 25 -10 4 -11 6 -2 6 7 1 31 -8 52 -19z m-706 -40 c-6 -5 -24 21
-24 34 0 6 6 1 14 -10 8 -10 12 -21 10 -24z m36 -5 c0 -5 -5 -3 -10 5 -5 8
-10 20 -10 25 0 6 5 3 10 -5 5 -8 10 -19 10 -25z m478 16 c9 -5 -17 -12 -70
-17 l-83 -9 57 -3 c32 -2 74 2 94 7 32 9 46 6 108 -20 77 -33 105 -52 69 -46
-13 2 -26 6 -29 10 -4 4 -13 2 -21 -4 -14 -13 -173 -6 -273 10 -30 5 -98 10
-150 12 l-95 2 74 8 c103 12 104 23 1 16 l-85 -6 65 15 c129 28 313 42 338 25z
m561 -43 c43 -53 77 -144 66 -177 -17 -54 -64 -26 -114 69 -32 59 -39 107 -21
141 16 28 24 24 69 -33z m-919 33 c-57 -18 -90 -21 -90 -8 0 8 20 13 58 14 39
1 49 -1 32 -6z m825 -111 c10 -17 0 -13 -126 49 -66 32 -115 61 -107 63 14 6
222 -95 233 -112z m-985 40 c0 -14 -7 -20 -22 -20 -16 0 -19 -3 -11 -11 7 -7
24 -8 42 -4 27 6 30 9 20 27 -17 31 -3 33 26 2 l26 -28 -63 -18 c-35 -9 -64
-17 -64 -18 -6 -1 -14 72 -9 80 3 6 17 10 31 10 17 0 24 -5 24 -20z m-589 3
l64 -7 -85 -12 c-148 -22 -301 -83 -447 -181 -120 -79 -122 -80 -88 -43 49 54
203 178 248 201 41 21 152 46 213 48 17 1 60 -2 95 -6z m919 -14 c79 -12 235
-55 270 -75 14 -9 18 -13 9 -10 -148 44 -251 68 -329 76 -52 6 -104 13 -116
16 -16 4 -24 1 -27 -13 -4 -14 -5 -13 -6 5 -1 23 0 23 67 17 37 -4 96 -11 132
-16z m-593 -71 c101 -24 183 -47 183 -52 0 -13 -101 -109 -153 -145 -50 -34
-103 -54 -118 -45 -5 3 7 26 26 51 42 55 51 83 36 112 -13 24 -69 41 -126 40
-34 -1 -32 -3 18 -9 66 -9 97 -31 97 -71 0 -61 -108 -138 -156 -111 -15 8 -12
10 18 10 67 0 128 49 128 103 0 30 -13 43 -54 53 -84 20 -186 -34 -172 -92 4
-15 7 -35 7 -44 0 -9 22 -34 49 -54 27 -21 46 -42 43 -47 -3 -5 -10 -2 -15 7
-5 9 -16 16 -24 16 -9 0 -70 20 -137 44 -67 24 -159 52 -204 62 l-81 17 -64
-33 c-57 -29 -168 -106 -168 -117 0 -2 20 10 45 27 25 17 66 38 90 46 39 14
50 14 105 0 33 -9 109 -34 168 -57 59 -23 128 -48 154 -58 26 -9 49 -24 51
-33 6 -21 -19 -58 -39 -58 -8 0 -14 -4 -14 -9 0 -4 27 -11 60 -15 63 -7 67
-11 46 -38 -11 -15 -18 -16 -44 -7 -17 6 -33 18 -35 27 -3 9 -5 4 -6 -13 -1
-16 -10 -63 -20 -104 l-17 -74 -345 -1 c-189 -1 -351 -5 -360 -9 -15 -7 -15
-4 -6 31 9 35 8 44 -15 83 -14 24 -40 56 -57 72 -41 36 -36 44 84 163 118 116
297 236 443 298 223 94 305 99 579 34z m606 35 c-7 -2 -19 -2 -25 0 -7 3 -2 5
12 5 14 0 19 -2 13 -5z m60 -60 c-7 -2 -21 -2 -30 0 -10 3 -4 5 12 5 17 0 24
-2 18 -5z m50 -10 c-7 -2 -19 -2 -25 0 -7 3 -2 5 12 5 14 0 19 -2 13 -5z m-33
-29 c325 -30 533 -77 759 -170 163 -67 176 -71 131 -45 -47 27 -32 26 24 -1
25 -12 43 -25 40 -30 -3 -4 1 -6 8 -3 17 6 200 -94 193 -105 -3 -6 0 -7 8 -4
8 3 20 -3 28 -12 13 -16 10 -16 -36 -10 -28 4 -75 14 -105 21 -90 23 -257 44
-390 50 -69 3 -134 8 -145 11 -45 11 -134 58 -128 67 3 6 1 7 -6 3 -14 -9 -53
2 -46 14 3 4 -5 6 -17 2 -13 -3 -19 -1 -15 5 5 7 -1 9 -15 5 -15 -4 -19 -2
-13 7 5 10 2 11 -14 6 -13 -4 -21 -2 -21 5 0 6 -4 9 -9 5 -6 -3 -40 3 -78 13
-37 11 -143 32 -236 48 -166 28 -168 28 -200 9 -65 -39 -203 -140 -237 -174
-19 -20 -37 -35 -40 -34 -14 4 -8 -82 9 -137 11 -35 18 -67 15 -71 -2 -4 1 -9
6 -11 6 -2 12 -10 14 -18 2 -8 8 -28 14 -43 7 -16 12 -34 12 -41 0 -6 5 -17
12 -24 7 -7 8 -12 4 -12 -5 0 -1 -11 8 -25 9 -14 14 -30 11 -35 -3 -6 -1 -10
5 -10 6 0 8 -4 5 -10 -3 -5 -1 -10 4 -10 6 0 10 -3 9 -7 -1 -5 3 -19 9 -33 12
-26 22 -55 24 -68 0 -4 6 -14 12 -22 6 -8 2 -6 -11 4 -25 22 -30 11 -6 -15 14
-16 14 -17 0 -15 -8 1 -19 5 -23 9 -10 11 -11 47 -1 53 4 3 8 15 7 27 l0 22
-9 -22 c-5 -13 -14 -23 -19 -23 -5 0 -51 83 -101 185 -50 101 -113 220 -139
264 -27 44 -46 83 -42 86 3 4 2 5 -4 4 -14 -4 -124 11 -148 20 -16 6 -11 10
29 19 56 14 545 252 538 263 -2 4 6 5 18 2 19 -4 20 -3 8 6 -12 9 -9 10 14 5
19 -5 27 -3 22 4 -4 6 2 8 16 4 14 -3 19 -1 14 6 -4 7 4 9 26 6 18 -2 107 -11
198 -20z m87 20 c-3 -3 -12 -4 -19 -1 -8 3 -5 6 6 6 11 1 17 -2 13 -5z m-4068
-54 c107 -28 213 -61 236 -74 22 -14 63 -48 89 -78 177 -193 125 -161 496
-299 152 -56 216 -86 289 -133 122 -79 95 -89 -32 -13 -87 53 -230 111 -492
202 -105 36 -113 41 -165 99 -30 34 -83 89 -118 122 -69 67 -59 63 -374 154
-96 27 -128 33 -128 23 0 -20 -18 -16 -25 7 -7 23 1 40 18 40 7 0 100 -23 206
-50z m397 10 c102 -19 560 -134 543 -138 -9 -1 -47 4 -85 13 -265 62 -522 100
-604 89 -58 -8 -65 5 -17 29 38 19 82 21 163 7z m2770 -55 c18 -13 16 -14 -23
-15 -41 0 -57 13 -30 23 21 9 33 7 53 -8z m-3258 -92 c26 -28 27 -33 8 -33
-17 0 -51 45 -66 86 l-10 29 23 -30 c12 -16 32 -40 45 -52z m59 12 c25 -24 42
-49 38 -55 -4 -6 -26 10 -56 41 -27 28 -49 53 -49 55 0 15 30 -3 67 -41z
m3123 -15 c14 -11 21 -20 17 -20 -5 0 -20 9 -34 20 -14 11 -22 20 -17 20 5 0
20 -9 34 -20z m-2873 4 c-3 -3 -12 -4 -19 -1 -8 3 -5 6 6 6 11 1 17 -2 13 -5z
m770 0 c-3 -3 -12 -4 -19 -1 -8 3 -5 6 6 6 11 1 17 -2 13 -5z m3823 -9 c14 -8
21 -14 15 -14 -5 0 -21 6 -35 14 -14 8 -20 14 -15 14 6 0 21 -6 35 -14z
m-1740 -89 c0 -3 -4 -8 -10 -11 -5 -3 -10 -1 -10 4 0 6 5 11 10 11 6 0 10 -2
10 -4z m1310 -65 c-14 -5 -40 -15 -57 -24 -27 -14 -40 -15 -83 -6 -64 14 -65
24 -2 15 32 -4 62 -1 88 8 21 8 48 15 59 14 16 0 15 -1 -5 -7z m-512 -33 c49
-32 51 -35 51 -78 1 -25 -2 -55 -5 -68 -8 -28 -28 -25 -120 19 -62 29 -62 29
-66 77 -6 63 -2 70 40 75 21 2 40 4 43 5 4 1 29 -13 57 -30z m-343 -5 c-11 -3
-23 -10 -27 -17 -5 -7 -8 -7 -8 0 0 16 11 24 34 23 20 -1 20 -1 1 -6z m-3747
-30 c61 -44 60 -47 -5 -14 -35 17 -63 33 -63 36 0 13 35 2 68 -22z m117 18
c-6 -6 -33 -6 -65 -2 l-55 9 65 1 c39 1 60 -3 55 -8z m338 -24 c32 -14 57 -32
57 -41 0 -19 34 -29 74 -22 47 9 82 -8 316 -154 218 -136 323 -199 516 -314
165 -99 294 -195 294 -218 0 -19 -32 -4 -91 43 -35 28 -117 82 -181 121 -65
38 -120 73 -123 79 -4 5 -13 9 -21 9 -17 0 -608 373 -647 409 -24 22 -31 24
-55 15 -33 -13 -70 -2 -92 26 -20 25 -153 51 -250 49 -68 -2 -120 10 -120 28
0 3 60 4 133 1 116 -4 139 -8 190 -31z m-403 4 c0 -5 8 -12 18 -14 13 -4 14
-5 1 -6 -8 0 -24 6 -35 14 -17 13 -17 14 -1 15 9 0 17 -4 17 -9z m3677 -23
c-3 -8 -6 -5 -6 6 -1 11 2 17 5 13 3 -3 4 -12 1 -19z m-367 6 c0 -4 -16 -29
-36 -57 -27 -37 -31 -48 -18 -43 15 5 14 2 -3 -11 -15 -12 -28 -41 -39 -88 -9
-38 -21 -88 -27 -110 -6 -22 -10 -43 -9 -48 1 -4 -8 -12 -20 -18 -13 -6 -40
-32 -62 -57 l-39 -46 29 -13 29 -13 -35 6 c-34 5 -39 2 -110 -73 -89 -93 -123
-143 -220 -323 -40 -74 -115 -200 -166 -279 -102 -156 -109 -181 -75 -238 11
-17 39 -45 63 -61 l44 -30 74 68 c41 37 86 70 100 74 l25 8 -23 -17 c-23 -17
-58 -75 -45 -75 18 0 31 16 30 35 -3 25 45 30 88 11 39 -18 167 -42 335 -61
74 -8 150 -18 168 -21 27 -5 31 -4 26 10 -3 9 -2 16 4 16 5 0 12 -8 15 -19 3
-14 21 -21 88 -31 143 -21 181 -35 149 -55 -13 -8 -152 8 -305 35 -260 46
-483 80 -521 80 -31 0 -46 -6 -65 -26 -16 -17 -30 -23 -44 -20 -15 4 -32 -8
-70 -50 l-50 -56 -140 -3 c-77 -2 -122 -1 -100 3 22 4 35 10 29 14 -10 7 -129
13 -149 8 -5 -1 -32 -1 -60 0 l-50 3 60 7 c33 5 132 9 219 9 88 1 162 3 164 6
3 3 -15 26 -40 51 -43 43 -73 107 -79 169 -3 25 37 111 67 148 33 39 31 80 -3
107 -23 18 -38 21 -81 18 -72 -6 -91 -27 -105 -117 -11 -70 -18 -79 -46 -62
-11 7 -12 27 -7 95 l7 86 -63 0 c-60 0 -62 1 -39 16 16 12 37 15 71 12 27 -3
57 0 71 7 14 8 33 10 53 4 17 -4 57 -13 88 -19 31 -6 73 -22 92 -35 l36 -24
24 32 c28 37 187 300 217 359 11 21 50 71 87 111 116 125 116 125 104 140 -7
8 -9 17 -5 20 12 12 23 7 23 -10 1 -14 8 -9 32 17 l32 35 -35 7 c-19 4 -155
16 -304 27 -148 12 -289 23 -312 25 l-43 4 0 -73 c0 -67 15 -407 24 -552 3
-55 2 -63 -14 -63 -15 0 -19 12 -24 73 -6 69 -26 512 -26 569 0 24 -3 27 -23
19 -32 -12 -330 -208 -458 -301 -59 -43 -110 -76 -113 -73 -2 3 -10 2 -16 -2
-12 -7 122 -93 277 -177 106 -57 142 -83 130 -95 -5 -4 -69 23 -143 61 -97 49
-133 73 -130 83 4 10 0 13 -12 11 -9 -2 -42 12 -72 32 -61 41 -90 54 -90 41 0
-5 29 -26 65 -47 61 -37 78 -54 54 -54 -6 0 -41 18 -78 40 -37 22 -71 40 -76
40 -14 0 -75 -62 -75 -77 0 -11 -28 -19 -54 -14 -5 1 -21 -9 -35 -22 -14 -13
-55 -41 -91 -63 -36 -21 -101 -66 -145 -99 -116 -88 -118 -88 -35 5 49 53 100
97 142 123 l67 40 -102 61 c-56 34 -120 74 -142 89 -22 15 -45 27 -53 27 -7 0
-16 11 -21 23 -6 15 -46 46 -105 82 l-96 58 -33 -36 -32 -37 -290 161 c-380
211 -447 244 -473 230 -25 -13 -72 -14 -91 -2 -12 8 -10 18 13 64 14 30 34 61
43 68 19 17 256 25 399 14 l94 -7 117 -75 c65 -42 174 -112 243 -156 69 -45
129 -84 133 -88 5 -4 -14 -31 -42 -60 -28 -29 -49 -54 -48 -55 5 -5 119 -82
207 -141 52 -35 100 -63 106 -63 6 0 45 -24 85 -54 41 -29 84 -58 96 -65 20
-10 53 -6 53 7 0 12 -34 42 -48 42 -22 0 -99 47 -106 65 -3 8 -14 15 -25 15
-26 0 -36 17 -21 35 18 22 24 19 68 -27 39 -40 43 -42 104 -43 83 -1 94 -8 68
-46 -12 -16 -19 -29 -16 -29 3 0 32 23 66 51 48 39 65 49 83 43 18 -6 20 -5
10 8 -14 16 -8 28 15 28 8 0 133 79 278 175 239 158 311 202 368 219 13 5 17
12 12 30 -4 15 0 28 9 36 13 10 15 8 15 -13 0 -23 5 -26 43 -31 105 -13 512
-41 605 -41 l104 0 28 112 c31 121 29 118 79 186 31 42 51 58 51 41z m-2606
-49 c70 -51 118 -90 96 -79 -54 29 -189 124 -175 124 10 0 45 -20 79 -45z
m-327 19 c-3 -3 -12 -4 -19 -1 -8 3 -5 6 6 6 11 1 17 -2 13 -5z m46 -1 c-7 -2
-19 -2 -25 0 -7 3 -2 5 12 5 14 0 19 -2 13 -5z m1837 -4 c-50 -13 -437 -22
-490 -11 -32 6 -1 8 110 5 85 -2 200 0 255 5 55 5 114 9 130 10 29 0 29 0 -5
-9z m1047 -45 c-3 -3 -12 -4 -19 -1 -8 3 -5 6 6 6 11 1 17 -2 13 -5z m1260
-209 c80 -143 88 -165 67 -172 -8 -2 -174 305 -174 322 0 4 6 5 12 3 7 -3 50
-72 95 -153z m-4612 105 c-9 -16 -18 -30 -21 -30 -2 0 2 14 11 30 9 17 18 30
21 30 2 0 -2 -13 -11 -30z m4585 -141 c40 -77 70 -143 67 -145 -7 -7 -167 295
-167 313 1 17 31 -34 100 -168z m-1176 106 c3 -8 1 -15 -4 -15 -6 0 -10 7 -10
15 0 8 2 15 4 15 2 0 6 -7 10 -15z m1131 -138 c37 -70 65 -130 62 -133 -6 -6
-137 239 -137 257 0 18 1 17 75 -124z m-3165 85 c0 -5 -11 -42 -25 -83 -14
-40 -21 -75 -17 -77 5 -1 18 -10 28 -18 10 -8 -5 -3 -33 11 -53 26 -60 33 -45
51 8 8 16 28 41 97 7 17 18 27 31 27 11 0 20 -4 20 -8z m-1320 -15 c0 -2 -10
-12 -21 -23 -22 -19 -22 -19 -8 4 12 19 29 30 29 19z m405 -144 c72 -39 209
-114 305 -167 96 -53 250 -135 342 -183 93 -49 168 -93 168 -98 0 -15 -83
-138 -95 -142 -6 -2 -62 27 -125 65 -63 37 -164 94 -225 126 -60 33 -175 96
-255 141 -80 45 -228 128 -329 185 l-184 103 62 60 61 59 72 -39 c40 -22 132
-72 203 -110z m1085 55 c71 -46 130 -89 130 -95 0 -7 -2 -13 -5 -13 -14 0
-284 178 -278 184 12 12 24 6 153 -76z m2964 -33 c31 -60 48 -100 38 -90 -26
29 -102 170 -102 190 0 24 -2 27 64 -100z m-4591 90 c-3 -9 -8 -14 -10 -11 -3
3 -2 9 2 15 9 16 15 13 8 -4z m4102 -92 c-4 -38 -10 -72 -15 -77 -5 -4 -19 -1
-31 8 -26 18 -18 22 11 6 16 -9 19 -3 25 60 4 39 9 70 12 70 3 0 2 -30 -2 -67z
m-2745 48 c0 -5 -7 -11 -15 -15 -15 -5 -20 5 -8 17 9 10 23 9 23 -2z m3201
-103 c23 -40 54 -85 67 -100 l25 -27 -73 -97 c-82 -110 -152 -220 -199 -313
-34 -67 -113 -292 -106 -300 3 -2 25 10 48 27 l44 31 -9 -57 c-6 -31 -8 -122
-5 -202 4 -119 9 -161 31 -235 61 -204 180 -386 331 -507 47 -38 48 -40 20
-35 -16 3 -109 9 -205 12 -96 3 -305 10 -465 15 -159 6 -396 12 -525 16 -129
3 -253 7 -275 9 -22 2 -337 7 -700 11 -471 5 -723 4 -880 -5 -121 -7 -229 -15
-239 -18 -12 -3 8 27 51 78 151 181 221 330 258 552 5 31 9 36 20 27 7 -6 16
-26 19 -45 6 -31 10 -34 59 -44 29 -6 72 -12 97 -14 25 -2 9 -3 -35 -2 -44 2
-90 6 -103 10 -22 7 -23 5 -20 -31 3 -38 5 -40 88 -80 l85 -42 855 -3 c719 -3
858 -2 876 10 20 13 68 80 128 179 20 33 41 49 91 73 102 48 137 102 117 182
-15 57 -18 207 -5 215 6 4 16 25 22 47 6 22 30 88 53 147 l43 108 60 0 c117 0
161 60 252 342 26 80 50 145 54 142 4 -2 26 -36 50 -76z m-4332 -17 c56 -33
491 -275 801 -446 118 -65 217 -120 219 -121 5 -4 -83 -144 -92 -144 -5 0 -93
49 -195 108 -103 60 -344 198 -535 308 -393 225 -363 195 -316 304 21 50 22
50 46 35 13 -9 45 -29 72 -44z m-241 -12 c-17 -11 -68 -12 -68 -1 0 36 72 62
78 28 2 -10 -2 -23 -10 -27z m1618 6 c-25 -32 -46 -45 -46 -28 0 11 63 73 68
68 3 -2 -7 -20 -22 -40z m255 35 c23 -13 25 -39 5 -66 -14 -19 -15 -19 -39 5
-14 12 -30 20 -36 17 -15 -9 -20 6 -10 32 9 24 46 30 80 12z m1677 -28 c2 -7
-5 -12 -16 -12 -11 0 -22 8 -25 19 -4 16 -1 18 16 12 12 -4 23 -13 25 -19z
m-2248 7 c0 -7 -16 -27 -36 -45 -29 -28 -39 -32 -55 -24 -23 13 -24 23 -4 40
21 17 31 5 14 -16 -12 -14 -11 -16 6 -13 14 3 21 14 23 37 3 26 7 32 28 32 13
0 24 -5 24 -11z m2090 2 c0 -12 -20 -25 -27 -18 -7 7 6 27 18 27 5 0 9 -4 9
-9z m1400 -21 c-46 -25 -64 -25 -25 -1 17 11 37 20 45 20 8 0 -1 -8 -20 -19z
m-1150 0 c18 -12 2 -12 -25 0 -13 6 -15 9 -5 9 8 0 22 -4 30 -9z m-2285 -9
c10 -17 -17 -61 -38 -61 -13 0 -17 5 -13 16 3 9 6 21 6 27 0 7 4 6 10 -3 8
-12 10 -11 10 8 0 22 14 30 25 13z m1695 -1 c0 -11 -100 -11 -145 0 -21 5 -4
8 58 9 52 1 87 -3 87 -9z m-1876 -26 c3 -8 2 -12 -4 -9 -6 3 -10 10 -10 16 0
14 7 11 14 -7z m3774 -225 c68 -133 121 -243 119 -245 -2 -3 -26 -7 -53 -10
l-49 -6 -114 227 c-62 124 -111 229 -108 232 6 5 69 40 77 42 3 0 60 -108 128
-240z m-1538 216 c0 -16 -44 -21 -77 -8 -15 6 -13 9 12 14 50 11 65 10 65 -6z
m1265 5 c3 -5 1 -10 -4 -10 -6 0 -11 5 -11 10 0 6 2 10 4 10 3 0 8 -4 11 -10z
m-3230 -27 c48 -30 54 -43 30 -63 -34 -28 -123 42 -95 75 16 19 11 20 65 -12z
m2156 14 c-1 -12 -15 -9 -19 4 -3 6 1 10 8 8 6 -3 11 -8 11 -12z m-1807 -30
c15 -21 18 -32 10 -44 -13 -21 -64 -36 -79 -23 -11 9 -10 55 1 88 6 21 45 9
68 -21z m1653 27 c-3 -3 -12 -4 -19 -1 -8 3 -5 6 6 6 11 1 17 -2 13 -5z m489
-18 c1 -7 -4 -13 -11 -13 -7 0 -11 7 -10 16 2 9 4 18 4 20 2 8 15 -10 17 -23z
m-961 -17 c11 -11 -24 -11 -120 -2 -46 4 -63 9 -50 14 25 9 157 -1 170 -12z
m303 14 c-16 -2 -40 -2 -55 0 -16 2 -3 4 27 4 30 0 43 -2 28 -4z m189 1 c-3
-3 -12 -4 -19 -1 -8 3 -5 6 6 6 11 1 17 -2 13 -5z m-2116 -35 c25 -27 40 -69
24 -69 -7 0 -94 45 -114 59 -12 8 -12 12 -2 25 21 26 60 19 92 -15z m3393 -46
c22 -43 74 -144 117 -226 73 -140 87 -187 55 -187 -6 0 -29 -3 -51 -6 -39 -5
-40 -5 -15 10 14 8 35 15 48 16 12 0 22 2 22 5 0 2 -51 108 -114 235 -63 126
-111 230 -108 230 4 0 25 -35 46 -77z m-2324 57 c0 -10 -24 -17 -82 -23 -36
-3 -49 9 -31 26 10 11 113 8 113 -3z m1003 -16 c88 -18 142 -18 203 1 64 19
71 19 51 -3 -21 -23 -24 -70 -4 -53 16 13 31 -14 42 -73 7 -34 6 -36 -21 -36
-18 0 -24 -4 -18 -9 15 -16 110 -37 277 -61 99 -15 156 -28 154 -34 -2 -6 -13
-10 -23 -9 -253 33 -387 63 -554 124 -134 48 -217 62 -319 53 -89 -7 -82 -22
14 -27 58 -2 52 -3 -35 -5 -97 -3 -103 -4 -80 -17 15 -9 19 -15 10 -15 -12 0
-11 -3 3 -11 35 -20 253 -61 342 -64 60 -2 120 -11 180 -29 98 -28 154 -34 95
-10 l-35 14 39 -4 c21 -3 41 -7 43 -10 5 -4 -9 -30 -56 -100 l-25 -38 -56 6
c-30 4 -122 29 -205 57 -253 85 -394 116 -409 90 -3 -4 15 -11 41 -15 44 -6
402 -123 467 -152 29 -13 24 -14 -59 -9 -49 3 -110 8 -134 11 -61 8 -47 -8 57
-61 48 -24 82 -44 75 -44 -6 -1 -58 15 -115 35 -82 30 -122 51 -196 106 -52
39 -109 76 -129 84 -39 17 -39 27 3 103 13 24 24 45 24 47 0 10 -26 2 -44 -13
-18 -16 -17 -14 4 22 38 65 77 120 94 134 50 42 144 47 299 15z m627 16 c8 -5
11 -10 5 -10 -5 0 -17 5 -25 10 -8 5 -10 10 -5 10 6 0 17 -5 25 -10z m-2367
-103 c40 -31 37 -47 -8 -47 -22 0 -128 49 -160 73 -18 15 -19 17 -4 32 15 15
20 13 64 -25 62 -53 71 -43 14 17 l-44 46 50 -33 c28 -18 67 -47 88 -63z
m2277 77 c0 -8 -19 -13 -24 -6 -3 5 1 9 9 9 8 0 15 -2 15 -3z m-2825 -14 c3
-5 2 -10 -4 -10 -5 0 -13 5 -16 10 -3 6 -2 10 4 10 5 0 13 -4 16 -10z m10 -41
c41 -22 75 -45 75 -50 0 -14 -4 -12 -91 31 -44 22 -77 45 -74 50 9 14 8 14 90
-31z m40 21 c10 -11 15 -20 11 -20 -14 0 -46 21 -46 30 0 16 16 11 35 -10z
m659 -2 c-6 -20 -5 -21 9 -9 14 11 18 11 23 -3 4 -9 5 -18 3 -19 -2 -1 -18
-10 -35 -19 -31 -17 -31 -17 -57 10 -31 33 -34 42 -9 36 9 -3 26 2 37 10 28
22 37 20 29 -6z m1064 6 c57 -9 34 -22 -30 -17 -84 6 -115 13 -100 21 11 8 69
6 130 -4z m-1470 -2 c9 -7 8 -13 -7 -26 -23 -21 -41 -14 -41 15 0 20 24 25 48
11z m986 -28 c9 -23 6 -25 -60 -27 -47 -2 -59 1 -59 13 0 27 109 40 119 14z
m453 -50 c-10 -11 -57 -13 -57 -3 0 5 14 9 32 9 17 0 28 -3 25 -6z m2319 -35
c27 0 28 -1 7 -9 -25 -10 -28 -25 -13 -66 6 -15 9 -29 7 -31 -2 -2 -15 25 -28
59 -32 85 -32 85 -16 66 8 -10 27 -18 43 -19z m-3896 11 c8 -5 12 -11 9 -14
-3 -3 -14 1 -25 9 -21 16 -8 20 16 5z m4108 3 c-21 -2 -55 -2 -75 0 -21 2 -4
4 37 4 41 0 58 -2 38 -4z m-145 -10 c-7 -2 -19 -2 -25 0 -7 3 -2 5 12 5 14 0
19 -2 13 -5z m357 -28 c137 -47 297 -170 346 -268 21 -41 16 -36 -40 40 -89
121 -231 206 -416 248 -63 14 -63 15 -14 10 28 -3 84 -17 124 -30z m-2810 9
c0 -2 -7 -4 -15 -4 -8 0 -15 4 -15 10 0 5 7 7 15 4 8 -4 15 -8 15 -10z m-1345
-73 c17 -12 27 -21 22 -21 -17 0 -167 81 -167 90 0 11 93 -34 145 -69z m972
72 c-10 -10 -97 -21 -97 -12 0 8 32 15 79 18 13 0 21 -2 18 -6z m2986 -10
c-23 -2 -64 -2 -90 0 -26 2 -7 3 42 3 50 0 71 -1 48 -3z m-293 -34 c0 8 2 12
5 9 3 -3 2 -13 -1 -23 -6 -15 -8 -15 -20 6 -7 13 -13 29 -13 34 0 6 6 -1 14
-15 8 -14 14 -19 15 -11z m377 25 c-3 -3 -12 -4 -19 -1 -8 3 -5 6 6 6 11 1 17
-2 13 -5z m68 -14 c13 -5 14 -9 5 -9 -8 0 -24 4 -35 9 -13 5 -14 9 -5 9 8 0
24 -4 35 -9z m-3325 -10 c0 -5 -5 -10 -11 -10 -5 0 -7 5 -4 10 3 6 8 10 11 10
2 0 4 -4 4 -10z m2818 -8 c4 -14 -34 -16 -42 -3 -6 10 13 21 28 17 6 -1 12 -8
14 -14z m442 5 c43 -12 45 -14 56 -62 8 -37 13 -45 19 -32 4 9 5 31 3 47 -3
19 -1 29 6 27 12 -5 12 -12 2 -75 -4 -26 -3 -41 3 -38 5 4 12 24 16 46 4 22
11 42 16 46 23 14 259 -183 259 -216 0 -6 -150 -70 -165 -70 -5 0 -25 17 -45
38 -44 46 -97 92 -107 92 -5 0 -37 12 -73 27 -53 21 -81 26 -152 26 l-87 0
-30 69 c-17 37 -31 70 -31 72 0 18 246 19 310 3z m-3617 -32 c52 -39 59 -55
23 -55 -13 0 -29 -7 -36 -15 -11 -13 -16 -13 -40 2 -31 18 -47 67 -29 89 17
20 29 17 82 -21z m110 -39 c20 -9 37 -23 37 -31 0 -22 -11 -18 -55 21 -22 19
-35 34 -30 31 6 -2 27 -11 48 -21z m-518 -25 c7 -13 -21 -28 -72 -39 l-41 -9
27 42 c25 41 27 42 53 29 15 -8 29 -18 33 -23z m2415 34 c0 -3 -11 -23 -24
-44 -13 -21 -54 -98 -91 -170 l-66 -133 -102 -48 c-128 -60 -239 -100 -278
-100 -19 0 -37 9 -52 27 -106 127 -170 187 -238 226 -21 12 -39 28 -39 35 0
36 132 -70 231 -185 45 -51 87 -93 96 -93 29 0 166 51 268 100 l104 50 51 107
c68 142 119 233 130 233 6 0 10 -2 10 -5z m-1618 -137 c-8 -8 -22 -4 -50 14
-21 15 -71 42 -110 62 -40 20 -72 41 -72 46 0 6 55 -17 121 -51 88 -43 119
-63 111 -71z m3489 115 c13 -16 12 -17 -3 -4 -10 7 -18 15 -18 17 0 8 8 3 21
-13z m-1671 2 c0 -6 -80 -167 -86 -174 -23 -25 11 94 46 158 9 18 40 30 40 16z
m981 -22 c0 -15 2 -15 9 2 8 20 9 20 9 -1 1 -29 -10 -37 -25 -16 -16 21 -17
32 -4 32 6 0 10 -8 11 -17z m-2301 -3 c0 -5 -5 -10 -11 -10 -5 0 -7 5 -4 10 3
6 8 10 11 10 2 0 4 -4 4 -10z m2035 0 c4 -6 -11 -30 -33 -54 -47 -51 -112
-160 -140 -237 -68 -185 -43 -442 60 -617 43 -74 176 -209 256 -260 81 -53
220 -102 305 -109 48 -4 67 -10 67 -20 0 -8 4 -12 8 -9 4 2 8 -7 9 -22 2 -26
1 -26 -7 -4 -5 12 -15 22 -22 21 -10 0 -10 -2 0 -6 14 -5 17 -33 3 -33 -6 0
-12 4 -16 10 -3 5 -12 7 -19 4 -26 -10 -188 36 -270 76 -164 80 -307 218 -380
366 -137 277 -88 634 120 863 38 43 48 48 59 31z m-2981 -21 c14 -11 26 -18
26 -15 0 3 11 -5 24 -17 13 -12 130 -78 260 -146 182 -95 236 -128 236 -142 0
-16 -19 -10 -132 47 -73 36 -196 102 -274 145 -78 44 -163 87 -189 96 l-48 16
22 19 c30 23 42 23 75 -3z m130 12 c6 -9 -35 -24 -43 -15 -6 5 18 24 31 24 4
0 9 -4 12 -9z m3872 -23 l29 -33 -32 29 c-18 17 -33 31 -33 33 0 8 8 1 36 -29z
m-1856 -9 c0 -12 -11 -34 -24 -49 l-23 -28 -28 22 c-21 17 -26 27 -21 42 8 17
9 16 18 -8 14 -41 38 -36 38 7 0 28 4 35 20 35 14 0 20 -7 20 -21z m-2280 -11
c0 -7 10 -22 22 -35 28 -30 16 -42 -21 -20 -15 9 -31 14 -34 11 -3 -4 -13 1
-23 10 -9 10 -25 15 -38 11 -11 -3 -3 3 19 14 22 10 46 16 54 13 10 -4 12 -1
6 8 -5 9 -4 11 3 6 7 -4 12 -12 12 -18z m-1130 -33 c45 -47 49 -103 9 -117
-15 -5 -35 -20 -43 -33 -28 -42 -51 -41 -104 5 -61 54 -67 65 -48 92 22 30
107 87 132 88 11 0 35 -16 54 -35z m2705 -111 c83 -40 147 -73 143 -74 -12 0
-200 82 -258 113 -74 40 -140 86 -140 97 0 5 24 -7 53 -27 28 -20 120 -69 202
-109z m2228 111 c31 -15 57 -31 57 -36 0 -6 5 -7 10 -4 6 3 37 -18 69 -47 39
-34 55 -55 48 -60 -19 -12 -27 -9 -20 8 5 13 2 15 -14 10 -20 -6 -63 32 -63
57 0 8 -4 7 -10 -3 -7 -11 -1 -23 22 -47 34 -35 31 -46 -15 -69 -30 -16 -31
-16 -52 11 -21 26 -24 26 -63 14 -31 -9 -48 -9 -64 -1 -18 8 -19 11 -5 11 9 1
17 5 17 10 0 16 -24 18 -56 5 -27 -12 -34 -11 -62 9 -37 26 -48 47 -30 59 10
6 9 8 -4 8 -9 0 -18 6 -21 13 -2 6 -7 9 -11 5 -4 -3 0 -18 9 -32 27 -41 0 -31
-50 19 -25 25 -45 48 -45 50 0 9 119 5 124 -4 7 -11 46 -21 46 -12 0 4 -16 16
-35 27 -34 18 -35 19 -13 26 48 15 171 0 231 -27z m-4821 -6 c63 -32 65 -49 8
-49 -27 1 -41 10 -79 53 -34 38 -9 36 71 -4z m1318 -5 c0 -2 -13 2 -30 11 -16
9 -30 18 -30 21 0 2 14 -2 30 -11 17 -9 30 -18 30 -21z m25 0 c11 -17 12 -25
4 -22 -6 2 -16 14 -20 26 -11 29 -5 28 16 -4z m2825 8 c-8 -2 -35 -27 -59 -55
l-45 -52 30 -6 29 -5 -32 -8 c-85 -20 -133 -293 -82 -476 36 -133 84 -215 179
-310 92 -92 189 -151 305 -186 80 -24 265 -24 355 -1 248 65 441 262 515 527
35 125 18 313 -42 448 -13 29 -19 51 -14 48 16 -10 60 -132 77 -217 51 -255
-60 -535 -279 -703 -292 -224 -685 -188 -943 86 -139 147 -210 360 -184 554
13 99 26 139 81 244 42 82 92 136 112 123 9 -5 8 -9 -3 -11z m240 -33 c0 -14
-42 -38 -56 -32 -18 7 -18 23 0 23 8 0 18 4 21 10 3 5 -2 9 -12 7 -27 -3 -28
17 -1 24 21 6 48 -12 48 -32z m805 21 c10 -11 16 -20 13 -20 -3 0 -13 9 -23
20 -10 11 -16 20 -13 20 3 0 13 -9 23 -20z m-902 -28 c-5 -21 -6 -21 -20 -5
-13 17 -14 16 -8 -9 3 -16 1 -28 -4 -28 -5 0 -11 -12 -13 -27 -3 -25 -7 -28
-37 -28 -19 0 -36 5 -38 12 -6 18 45 66 63 59 11 -4 13 0 8 21 -4 14 -3 24 2
21 5 -3 18 -2 29 2 25 9 25 9 18 -18z m-3159 -13 c-8 -14 -24 -10 -24 6 0 9 6
12 15 9 8 -4 12 -10 9 -15z m-274 -32 l0 -43 -102 -70 c-155 -106 -292 -210
-356 -271 -27 -27 -32 -28 -32 -8 0 7 8 19 18 25 15 10 15 10 -3 6 -14 -4 -26
3 -39 21 -11 14 -14 23 -8 19 7 -4 33 4 60 17 37 19 51 21 65 13 12 -7 20 -8
25 -1 4 6 22 23 40 38 43 35 30 35 -20 1 -21 -15 -41 -24 -44 -21 -3 3 40 35
95 71 56 36 101 67 101 69 0 2 -11 2 -25 -1 -14 -2 -25 0 -25 7 0 12 122 92
129 85 3 -2 -11 -21 -30 -41 -19 -21 5 0 53 45 48 45 90 82 93 82 3 0 5 -19 5
-43z m3718 -275 c39 -42 39 -45 7 -30 -30 14 -55 -3 -55 -38 0 -34 27 -56 61
-49 16 4 29 3 29 -2 0 -7 -18 -38 -36 -61 -1 -2 -19 1 -38 8 -31 10 -36 16
-36 41 0 34 -16 69 -31 69 -5 0 -2 -14 7 -31 21 -42 12 -69 -36 -113 -22 -20
-36 -36 -30 -36 5 0 13 -12 16 -27 6 -21 9 -23 13 -11 5 15 13 12 61 -17 63
-39 107 -47 91 -16 -17 31 0 32 25 2 27 -32 30 -47 12 -54 -7 -3 0 -6 17 -6
22 -1 26 2 17 11 -19 19 -14 28 18 28 28 0 30 -2 24 -27 -4 -16 -13 -32 -21
-36 -21 -12 -5 -29 16 -17 10 5 20 8 22 6 2 -2 10 3 18 11 11 12 10 14 -5 11
-15 -2 -19 3 -17 27 1 16 7 31 14 34 6 2 27 17 46 34 34 30 34 31 15 49 -11
12 -37 20 -67 23 -26 2 -53 9 -59 16 -8 9 -6 10 12 6 14 -3 22 -1 22 7 0 7 9
21 19 30 19 17 20 17 23 -6 2 -16 18 -31 49 -48 26 -14 59 -33 73 -44 24 -17
37 -21 86 -25 16 -1 45 -39 36 -48 -2 -3 -15 2 -28 11 -12 9 -34 16 -48 16
-14 0 -38 7 -55 15 l-30 15 24 -20 c13 -11 34 -20 47 -20 27 0 41 -17 25 -33
-7 -7 -18 -7 -38 2 l-28 13 20 -23 c11 -12 16 -24 10 -26 -44 -17 -87 -42 -72
-42 21 -1 23 -39 2 -47 -8 -4 -22 -1 -30 6 -12 10 -15 10 -15 -3 0 -26 -136
-47 -197 -31 -39 11 -25 24 25 25 l47 2 -45 7 c-24 4 -53 5 -62 2 -10 -2 -18
1 -18 7 0 15 40 30 60 23 12 -5 13 -3 3 10 -7 8 -10 18 -6 21 3 4 1 7 -6 7 -6
0 -14 -7 -17 -15 -8 -21 -34 -19 -35 3 0 10 -3 12 -6 5 -8 -20 -41 -15 -48 7
-5 16 -9 17 -20 7 -11 -10 -11 -13 1 -20 11 -7 13 -23 8 -75 -7 -62 -21 -91
-47 -92 -7 0 -1 108 9 158 3 17 0 22 -17 22 -32 0 -117 68 -145 116 -13 22
-24 44 -24 47 0 14 38 6 44 -8 3 -8 17 -20 31 -27 19 -8 25 -17 21 -31 -5 -20
2 -47 13 -47 3 0 7 18 8 41 2 22 -1 38 -6 35 -9 -6 -51 21 -51 34 0 5 15 10
33 12 31 3 32 5 30 42 -2 22 -10 47 -18 56 -15 16 -14 20 7 45 l23 26 -58 117
c-35 70 -55 122 -51 132 12 27 13 44 3 56 -12 15 8 31 21 18 20 -21 141 -265
138 -276 -3 -7 -24 24 -47 68 -23 45 -49 90 -57 100 -8 11 8 -25 36 -79 39
-76 48 -102 40 -113 -10 -11 -6 -12 18 -5 18 6 34 5 40 -1 5 -5 12 -6 15 -1 3
5 -28 73 -68 153 l-73 145 36 21 37 22 70 -136 c38 -74 85 -151 103 -170z
m-4531 292 c-3 -3 -12 -4 -19 -1 -8 3 -5 6 6 6 11 1 17 -2 13 -5z m1874 -13
c22 -18 22 -19 6 -45 -27 -41 -87 -30 -87 15 0 21 26 49 45 49 7 0 23 -8 36
-19z m-749 -25 c21 -25 22 -35 7 -73 -10 -26 -11 -27 -21 -9 -8 15 -8 21 1 24
6 2 -1 16 -19 32 -37 34 -41 65 -7 55 12 -4 30 -17 39 -29z m-1461 -37 c36
-35 58 -64 53 -69 -11 -11 -137 107 -129 120 9 15 10 14 76 -51z m369 42 c0
-4 -28 -12 -62 -18 -154 -26 -261 -126 -284 -265 -4 -24 -12 -38 -21 -38 -50
0 72 238 131 256 12 4 29 16 38 26 10 12 22 17 29 12 7 -4 17 0 24 10 8 10 35
19 71 24 59 8 74 7 74 -7z m71 -13 c10 -18 8 -19 -13 -13 -30 9 -42 21 -34 34
9 14 34 3 47 -21z m3050 15 c13 -15 12 -15 -8 -4 -24 12 -29 21 -14 21 5 0 15
-7 22 -17z m2023 2 c6 -16 -15 -29 -65 -39 -14 -3 -42 -17 -63 -31 -41 -28
-87 -33 -105 -11 -19 23 7 31 31 10 19 -18 20 -18 17 -1 -3 14 13 25 76 52 92
39 101 41 109 20z m-3400 -80 c9 -13 28 -28 42 -31 22 -6 24 -8 10 -16 -9 -5
-16 -18 -16 -28 0 -25 -2 -25 -50 5 -46 29 -44 23 -28 101 11 56 12 57 19 27
3 -18 14 -44 23 -58z m326 75 c0 -5 -4 -10 -10 -10 -5 0 -10 5 -10 10 0 6 5
10 10 10 6 0 10 -4 10 -10z m-2493 -59 c53 -39 85 -83 72 -102 -5 -7 -18 -44
-30 -81 -23 -74 -12 -68 -151 -83 -57 -6 -58 -6 -58 19 0 67 90 276 118 276 5
0 27 -13 49 -29z m486 18 c20 -5 37 -14 37 -20 0 -5 -11 -6 -27 -2 -36 9 -118
9 -165 -1 -85 -16 -168 -114 -184 -218 -6 -32 -10 -38 -30 -38 -30 0 -31 21
-3 96 24 62 76 127 123 151 78 41 174 53 249 32z m82 1 c3 -5 2 -10 -4 -10 -5
0 -13 5 -16 10 -3 6 -2 10 4 10 5 0 13 -4 16 -10z m5056 -137 c22 -86 26 -209
7 -197 -7 5 -9 2 -6 -8 5 -11 -12 -9 -83 11 -87 25 -89 27 -89 56 0 17 -5 36
-11 42 -8 8 -8 17 0 30 8 15 5 29 -9 59 -30 63 -29 76 8 94 18 9 30 19 27 23
-3 4 -2 5 2 2 3 -3 12 0 20 6 7 7 28 15 46 18 29 7 34 4 50 -26 10 -19 27 -68
38 -110z m-4021 127 c0 -5 -4 -10 -9 -10 -6 0 -13 5 -16 10 -3 6 1 10 9 10 9
0 16 -4 16 -10z m896 -5 c-4 -24 -16 -30 -16 -7 0 12 4 22 9 22 5 0 8 -7 7
-15z m-974 -209 c55 -58 96 -110 93 -118 -5 -14 2 -26 26 -46 18 -14 250 -47
437 -62 65 -6 141 -18 171 -29 l54 -19 -125 -7 c-207 -12 -411 -2 -493 24 -90
29 -232 113 -328 195 -42 35 -103 81 -137 102 -99 61 -60 51 57 -14 99 -56
214 -112 230 -112 21 0 -49 52 -152 113 -66 39 -128 76 -138 83 -16 10 -13 16
39 52 l57 41 56 -49 c31 -27 100 -96 153 -154z m2916 183 c-11 -17 -10 -22 7
-35 11 -8 26 -12 33 -9 30 11 31 -8 1 -36 l-32 -30 6 -108 5 -108 -48 -36
c-36 -27 -51 -33 -57 -24 -16 25 -15 210 1 273 27 104 43 134 71 134 23 0 24
-2 13 -21z m128 -10 c-14 -11 -31 -17 -37 -14 -13 9 19 34 45 35 16 0 15 -3
-8 -21z m744 6 c0 -9 -11 -27 -25 -41 -25 -25 -25 -25 -3 -19 13 4 28 14 35
22 11 14 14 12 24 -13 6 -16 12 -39 12 -51 1 -13 5 -23 8 -23 4 0 9 -20 11
-45 3 -48 -1 -52 -34 -34 -20 11 -21 12 -4 25 17 12 17 14 1 48 -9 19 -14 40
-10 46 8 14 -16 2 -50 -23 -19 -15 -19 -15 6 -10 20 4 31 -1 42 -18 31 -43
-13 -54 -64 -17 -19 14 -33 19 -37 12 -9 -13 -63 -12 -58 1 2 6 10 9 19 9 9
-1 14 2 12 7 -8 12 17 49 32 49 11 0 11 4 1 20 -11 18 -9 23 17 45 34 28 65
32 65 10z m-230 -10 c-7 -9 -15 -13 -17 -11 -7 7 7 26 19 26 6 0 6 -6 -2 -15z
m-4655 -35 c4 -6 -8 -18 -26 -28 -17 -9 -51 -31 -75 -49 -35 -26 -43 -29 -48
-16 -4 9 -4 24 -1 34 8 25 -2 24 -15 -2 -9 -16 -8 -26 3 -43 13 -19 13 -27 -2
-66 -33 -90 -5 -140 104 -191 33 -15 51 -28 41 -29 -11 0 -50 14 -87 31 -48
22 -76 30 -94 25 -87 -22 8 -104 132 -114 61 -5 63 -5 63 -33 0 -26 -3 -29
-33 -29 -90 0 -213 62 -224 113 -4 18 -11 26 -19 23 -18 -7 -38 33 -53 102 -6
29 -11 55 -11 57 0 3 14 5 31 5 27 0 30 -3 28 -27 -4 -32 29 -103 47 -103 13
0 27 110 23 180 -5 101 44 169 129 180 46 6 75 -1 87 -20z m3172 -95 c-2 -23
-12 -57 -22 -78 -18 -39 -88 -117 -105 -117 -5 0 7 33 27 73 30 58 38 85 41
142 3 57 8 73 25 87 22 17 22 16 30 -25 4 -23 6 -60 4 -82z m-3020 67 c16 -27
33 -47 39 -45 14 5 39 -25 30 -34 -4 -4 -15 -2 -24 5 -9 7 -24 15 -33 18 -20
7 -61 104 -44 104 2 0 17 -22 32 -48z m4368 25 c0 -26 -20 -25 -23 2 -3 16 1
22 10 19 7 -3 13 -12 13 -21z m461 -40 c23 -60 23 -87 -2 -87 -13 0 -15 10
-18 68 -1 9 -3 19 -6 22 -8 8 -30 49 -30 56 0 3 8 4 17 2 10 -2 26 -27 39 -61z
m-5887 -37 c-27 -185 3 -363 87 -520 19 -36 27 -56 18 -45 -27 34 -71 127 -94
200 -28 87 -39 308 -20 398 17 85 23 63 9 -33z m3201 66 c0 -13 -57 -43 -64
-35 -2 2 -7 14 -10 26 -6 19 -3 22 26 25 39 4 48 1 48 -16z m-2200 -40 c5 -5
7 2 4 15 l-6 24 20 -25 c22 -27 34 -78 20 -86 -5 -4 -7 -13 -3 -21 4 -13 3
-14 -10 -3 -12 10 -15 10 -15 -4 0 -9 5 -16 10 -16 6 0 10 -5 10 -11 0 -5 -4
-7 -10 -4 -16 10 -11 -21 6 -35 13 -12 13 -16 -8 -34 -40 -37 -78 -57 -121
-66 l-42 -8 48 -1 c42 -1 52 3 92 40 42 39 45 40 82 30 21 -6 50 -11 66 -11
15 0 27 -4 27 -10 0 -5 -18 -10 -41 -10 -28 0 -51 -8 -73 -25 -73 -56 -134
-64 -216 -28 -35 15 -35 16 -10 22 20 6 22 8 8 13 -9 4 -25 4 -36 1 -22 -5
-48 29 -37 47 4 6 1 9 -7 8 -9 -2 -12 8 -9 37 3 38 30 105 31 78 0 -18 20 -16
20 2 0 8 -5 15 -10 15 -7 0 -6 8 1 22 7 13 14 18 16 11 3 -7 19 -9 46 -6 32 3
39 2 27 -6 -12 -10 -10 -11 10 -10 14 1 34 1 45 0 17 -1 18 -3 5 -11 -12 -8
-11 -10 7 -10 25 0 41 -36 24 -53 -16 -16 -14 -27 4 -21 36 14 7 114 -34 114
-11 0 -12 3 -3 12 9 9 17 7 33 -8 l22 -19 -16 26 c-14 21 -15 30 -4 52 12 26
12 26 15 4 2 -12 8 -26 12 -31z m4590 1 c12 -4 11 -6 -3 -6 -10 -1 -21 -10
-25 -20 -7 -19 -8 -18 -34 4 -25 21 -25 24 -11 45 15 21 15 21 37 2 11 -11 28
-22 36 -25z m-2965 23 c18 -8 18 -9 -5 -9 -14 0 -32 4 -40 9 -12 8 -12 10 5 9
11 0 29 -4 40 -9z m-1691 -6 c28 -11 17 -19 -24 -19 -35 0 -38 2 -23 13 19 14
25 14 47 6z m1671 -19 c44 -9 50 -14 59 -43 7 -27 6 -35 -10 -47 -18 -14 -18
-15 4 -21 33 -10 23 -35 -20 -50 -28 -9 -38 -10 -42 -1 -2 7 -5 4 -5 -5 -1
-22 18 -23 66 -3 39 17 49 14 39 -10 -4 -13 -18 -15 -63 -13 l-58 3 -16 75
c-30 143 -30 142 -16 133 6 -4 34 -13 62 -18z m622 9 c-3 -3 -12 -4 -19 -1 -8
3 -5 6 6 6 11 1 17 -2 13 -5z m1763 -85 c-10 -23 -9 -36 3 -66 8 -21 18 -57
22 -80 6 -36 4 -43 -9 -43 -9 0 -19 6 -22 14 -3 9 -13 12 -27 8 -21 -5 -21 -5
2 24 20 25 22 36 16 86 -5 37 -2 70 6 95 12 33 14 35 17 15 2 -13 -2 -37 -8
-53z m-4075 51 c7 -12 -12 -12 -40 0 -18 8 -17 9 7 9 15 1 30 -3 33 -9z m4585
-10 c0 -5 -2 -10 -4 -10 -3 0 -8 5 -11 10 -3 6 -1 10 4 10 6 0 11 -4 11 -10z
m-2320 -26 c0 -21 -3 -25 -17 -19 -10 4 -26 10 -35 12 -35 10 -16 31 30 32 17
1 22 -4 22 -25z m949 -65 c1 -39 -28 -73 -88 -104 -18 -9 -67 -43 -108 -76
-105 -83 -163 -100 -368 -106 -136 -4 -189 -1 -349 21 -103 14 -229 26 -280
27 -73 1 -85 3 -61 10 17 6 89 9 160 8 163 -2 152 -4 160 31 6 26 11 30 40 30
37 0 65 -28 65 -66 0 -20 7 -23 77 -30 107 -10 316 2 388 21 70 20 117 42 207
102 76 50 126 119 136 185 6 42 6 42 13 13 4 -16 7 -46 8 -66z m985 65 c20
-20 14 -31 -24 -39 -44 -10 -85 37 -42 48 34 9 51 7 66 -9z m1033 -66 c-2 -18
-4 -6 -4 27 0 33 2 48 4 33 2 -15 2 -42 0 -60z m-2481 47 c-33 -14 -64 -25
-70 -25 -16 1 96 48 114 49 8 0 -12 -11 -44 -24z m314 3 c0 -19 -18 -44 -25
-36 -4 3 0 15 7 27 15 24 18 26 18 9z m-746 -13 c3 -8 1 -15 -4 -15 -6 0 -10
7 -10 15 0 8 2 15 4 15 2 0 6 -7 10 -15z m2356 -43 c0 -26 -4 -52 -8 -59 -4
-6 -7 17 -7 52 0 35 3 61 8 58 4 -2 7 -25 7 -51z m-4510 34 c0 -8 -4 -18 -10
-21 -5 -3 -10 -4 -10 -1 0 2 -3 11 -6 20 -4 11 -1 16 10 16 9 0 16 -6 16 -14z
m410 -7 c-64 -51 -84 -61 -43 -20 23 23 48 41 55 41 7 0 2 -9 -12 -21z m4420
-26 c0 -15 -5 -23 -12 -21 -19 7 -32 34 -24 53 9 24 36 1 36 -32z m-89 13 c31
-22 35 -29 31 -58 -2 -18 -8 -38 -13 -43 -13 -17 -4 -44 19 -60 18 -14 20 -19
10 -48 -6 -17 -17 -40 -23 -50 -12 -17 -13 -17 -19 0 -5 11 -1 23 11 33 10 8
18 23 18 32 0 32 -12 29 -29 -7 -14 -29 -20 -34 -32 -24 -7 6 -11 15 -8 20 3
5 1 9 -5 9 -5 0 -13 -4 -16 -10 -9 -14 -37 -12 -60 5 -19 15 -19 16 -1 46 17
29 17 31 -1 44 -16 13 -16 14 -1 15 25 0 48 39 48 82 0 46 18 50 71 14z
m-4281 -53 c0 -88 -5 -95 -55 -82 -74 20 -76 32 -15 94 30 30 58 55 62 55 4 0
8 -30 8 -67z m-415 43 c17 -12 17 -13 -9 -20 -34 -8 -51 1 -35 20 14 17 20 17
44 0z m4327 -11 c0 -5 -5 -11 -11 -13 -6 -2 -11 4 -11 13 0 9 5 15 11 13 6 -2
11 -8 11 -13z m-5132 -225 c22 -64 20 -78 -3 -21 -20 48 -37 151 -36 206 1 23
6 3 11 -45 5 -47 18 -110 28 -140z m180 206 c0 -9 -17 -14 -60 -15 -33 -1 -70
-5 -82 -10 -14 -6 8 -7 59 -4 l82 6 6 -29 c4 -16 14 -52 24 -80 l18 -52 -90
-37 c-49 -20 -93 -33 -97 -28 -25 27 -56 213 -36 213 6 0 5 5 -2 12 -20 20
-14 27 26 31 93 9 152 7 152 -7z m53 -44 c17 -189 207 -304 431 -262 63 12
171 68 190 99 15 23 51 9 115 -43 36 -30 79 -68 94 -84 24 -24 26 -31 13 -41
-11 -10 -18 -5 -35 23 -12 19 -51 58 -86 86 l-65 50 -63 -43 c-127 -87 -300
-103 -430 -39 -85 42 -161 123 -182 194 -19 65 -20 118 -1 118 9 0 15 -18 19
-58z m1078 35 c-10 -9 -11 -8 -5 6 3 10 9 15 12 12 3 -3 0 -11 -7 -18z m-474
-2 c8 -23 -2 -28 -43 -21 -37 7 -36 20 1 29 33 8 35 8 42 -8z m4743 -1 c0 -2
-7 -4 -15 -4 -8 0 -15 4 -15 10 0 5 7 7 15 4 8 -4 15 -8 15 -10z m-3679 -47
c-8 -8 -11 -7 -11 4 0 20 13 34 18 19 3 -7 -1 -17 -7 -23z m2849 17 c0 -8 -4
-12 -10 -9 -5 3 -10 10 -10 16 0 5 5 9 10 9 6 0 10 -7 10 -16z m830 -5 c0 -25
-33 -22 -38 4 -2 12 3 17 17 17 15 0 21 -6 21 -21z m143 -5 l68 -19 -6 -35
c-9 -47 -20 -56 -38 -30 -8 12 -37 36 -63 53 -45 30 -73 66 -43 55 8 -3 45
-13 82 -24z m-2844 -6 c-17 -32 -23 -37 -15 -11 6 19 3 22 -26 26 -29 3 -28 4
10 5 41 2 42 1 31 -20z m2754 -33 c-13 -10 -11 -11 15 -7 27 4 38 -2 72 -36
22 -22 40 -46 40 -55 0 -21 -75 -166 -104 -201 l-24 -28 -58 77 c-48 64 -56
79 -46 93 20 27 30 53 53 135 l22 78 23 -22 c21 -20 22 -23 7 -34z m-2573 15
c18 -12 2 -12 -25 0 -13 6 -15 9 -5 9 8 0 22 -4 30 -9z m2498 -2 c16 -16 15
-38 -2 -38 -13 0 -26 20 -26 41 0 13 14 11 28 -3z m-4464 -17 c3 -4 26 -14 52
-21 25 -7 48 -18 50 -24 7 -17 -23 -94 -58 -153 l-31 -51 -68 56 c-37 32 -68
63 -68 71 -1 8 22 36 49 64 28 27 50 54 50 58 0 12 17 12 24 0z m406 -10 c0
-11 -4 -23 -10 -26 -6 -4 -10 5 -10 19 0 14 5 26 10 26 6 0 10 -9 10 -19z
m1660 -1 c36 -10 56 -19 45 -19 -21 0 -137 36 -120 38 6 0 39 -8 75 -19z
m-314 -21 c8 -3 9 -12 2 -28 -7 -21 -11 -23 -23 -10 -7 8 -17 28 -21 44 -7 29
-6 29 12 14 10 -9 24 -18 30 -20z m2965 -10 c-6 -16 -10 -18 -10 -7 -1 22 12
55 16 42 2 -6 -1 -22 -6 -35z m-1160 14 l42 -16 -22 -18 c-18 -14 -28 -16 -49
-8 -42 16 -54 29 -41 45 15 18 20 18 70 -3z m-2956 -18 c50 -31 36 -31 -30 0
-30 14 -42 24 -30 24 11 0 38 -11 60 -24z m-725 2 c0 -2 -10 -12 -22 -23 l-23
-19 19 23 c18 21 26 27 26 19z m3620 -32 c40 -25 75 -31 98 -16 9 5 45 -23
114 -90 l102 -99 -11 -62 c-12 -72 -7 -101 13 -74 6 10 25 21 41 25 25 7 28
12 31 54 3 39 6 47 23 47 10 0 19 -4 19 -9 0 -18 110 -44 159 -37 46 6 48 5
74 -31 63 -87 75 -111 64 -122 -8 -8 -6 -11 9 -12 11 0 3 -7 -21 -17 -30 -12
-74 -16 -170 -16 -110 0 -139 3 -189 22 -177 65 -336 218 -396 380 -19 49 -21
82 -5 82 3 0 23 -11 45 -25z m-4681 -30 l0 -20 -9 20 c-5 11 -9 27 -9 35 -1
13 0 13 9 0 5 -8 9 -24 9 -35z m1821 13 c10 -6 7 -7 -10 -2 -14 3 -32 11 -40
16 -10 6 -7 7 10 2 14 -3 32 -11 40 -16z m-984 3 c-4 -5 2 -7 11 -5 10 2 32 0
48 -4 l30 -9 -50 -32 c-46 -29 -130 -61 -162 -61 -17 0 -17 49 0 54 60 18 107
40 107 52 0 8 5 14 11 14 5 0 8 -4 5 -9z m727 -76 c-9 -39 -18 -64 -20 -57 -5
12 14 108 24 125 12 21 11 -5 -4 -68z m-1187 16 c24 -27 64 -58 88 -70 l45
-21 -24 -71 c-23 -68 -60 -139 -72 -139 -36 0 -213 163 -228 209 -10 31 15 55
91 86 32 14 52 25 44 25 -20 0 -121 -47 -143 -68 -16 -14 -19 -14 -27 -2 -6 8
-10 17 -10 20 0 5 168 77 183 79 5 1 29 -21 53 -48z m-217 -219 c155 -158 363
-244 551 -228 134 11 271 58 380 130 48 32 51 32 20 6 -78 -68 -224 -128 -363
-150 -121 -19 -285 16 -429 91 -89 47 -223 183 -270 274 -56 109 -55 130 1 29
30 -55 74 -116 110 -152z m882 173 c49 -36 89 -90 89 -118 0 -29 -161 -147
-221 -162 -26 -6 -26 -6 -42 94 -25 150 -25 151 36 187 29 18 60 32 71 33 10
1 40 -15 67 -34z m1094 6 c129 -30 153 -44 60 -37 -38 3 -100 6 -137 6 -54 0
-68 3 -68 15 0 10 10 15 28 15 18 0 23 3 14 9 -7 4 -25 7 -40 5 -15 -1 -36 -3
-47 -4 -18 -1 -18 -2 3 -11 28 -11 20 -29 -13 -29 -17 0 -25 6 -27 22 -3 24
-28 34 -55 24 -14 -6 -14 -9 2 -26 25 -27 4 -26 -54 3 l-46 22 40 6 c80 13
238 4 340 -20z m3448 12 c42 -44 117 -150 117 -164 0 -15 -118 -96 -186 -129
-37 -17 -67 -30 -68 -28 -33 48 -46 86 -46 134 0 43 4 56 18 60 49 15 156 83
153 97 0 4 -3 6 -4 5 -8 -6 -36 25 -31 33 8 14 29 10 47 -8z m-5463 -67 c39
-69 121 -145 238 -220 96 -62 115 -83 40 -45 -75 38 -151 95 -214 161 -58 60
-114 138 -99 138 4 0 1 8 -6 17 -8 10 -9 14 -2 10 6 -4 26 -32 43 -61z m9 34
c11 -24 11 -24 -3 -6 -9 11 -16 24 -16 30 0 12 5 7 19 -24z m5407 9 c8 -14
-18 -31 -30 -19 -9 9 0 30 14 30 5 0 12 -5 16 -11z m-46 -38 c0 -23 -30 -37
-41 -19 -9 15 8 38 27 38 8 0 14 -9 14 -19z m330 -1 c-6 -11 -13 -20 -16 -20
-2 0 0 9 6 20 6 11 13 20 16 20 2 0 0 -9 -6 -20z m-4975 -117 c21 -138 21
-137 1 -141 -13 -3 -16 7 -16 45 0 44 -11 123 -25 191 -4 14 -1 22 8 22 10 0
19 -34 32 -117z m4265 90 c0 -20 -24 -11 -28 10 -2 12 1 15 12 11 9 -3 16 -13
16 -21z m-4920 -15 c15 -21 17 -28 6 -19 -16 13 -41 51 -33 51 2 0 14 -15 27
-32z m360 25 c0 -5 -9 -35 -19 -68 -10 -33 -22 -86 -26 -118 -7 -65 0 -63
-101 -26 -43 16 -194 129 -194 145 0 3 24 -14 53 -39 70 -59 128 -97 149 -97
26 0 57 47 80 124 25 85 25 86 44 86 8 0 14 -3 14 -7z m239 -53 c21 -111 24
-164 8 -185 -14 -18 -27 -20 -136 -20 -82 0 -124 4 -132 12 -22 22 -12 101 27
208 l14 40 104 0 104 0 11 -55z m5011 36 c0 -2 -8 -10 -17 -17 -16 -13 -17
-12 -4 4 13 16 21 21 21 13z m-4305 -76 c-15 -29 -29 -50 -31 -47 -3 2 8 30
23 61 15 31 29 53 31 47 2 -5 -9 -33 -23 -61z m4204 -34 c-73 -68 -201 -147
-240 -146 -8 1 13 12 46 27 80 34 150 81 210 142 27 28 52 51 55 51 3 -1 -29
-34 -71 -74z m-5652 34 c-1 -10 -5 -17 -9 -14 -4 3 -4 12 -1 21 5 12 3 14 -7
8 -9 -5 -11 -4 -6 4 10 16 25 4 23 -19z m1096 -39 c-79 -73 -169 -125 -268
-157 -89 -28 -230 -42 -285 -27 -27 7 -15 9 65 10 115 1 222 26 319 73 67 33
181 118 172 128 -11 10 26 41 42 35 12 -5 2 -19 -45 -62z m4239 39 c6 -40 -6
-46 -26 -15 -21 32 -20 45 3 45 13 0 20 -9 23 -30z m-5282 -25 c6 -8 9 -19 5
-26 -6 -8 -9 -8 -15 1 -5 8 -9 6 -14 -6 -4 -10 -4 -15 0 -11 4 4 17 -1 28 -10
17 -15 19 -15 8 -1 -26 34 8 29 46 -7 91 -88 246 -168 375 -195 90 -18 230
-14 321 9 43 12 83 18 89 14 6 -3 7 -1 3 5 -5 8 0 12 13 12 11 0 23 5 26 10 5
8 11 7 21 -1 11 -9 11 -15 3 -25 -6 -7 -14 -13 -17 -12 -4 1 -28 -8 -53 -19
-142 -64 -363 -71 -521 -16 -133 46 -319 167 -302 195 4 6 2 8 -3 5 -6 -4 -25
9 -42 28 -31 36 -39 51 -21 40 6 -3 10 1 10 9 0 20 24 21 40 1z m-70 -140 l64
-70 -58 55 c-31 30 -71 73 -88 95 -37 48 -12 24 82 -80z m1372 3 c-17 -24 -38
-51 -48 -59 -9 -8 1 11 24 41 23 30 42 59 42 64 0 5 3 7 6 3 3 -3 -8 -25 -24
-49z m-482 12 c-8 -5 -22 -9 -30 -9 -10 0 -8 3 5 9 27 12 43 12 25 0z m-405
-20 c13 -5 14 -9 5 -9 -8 0 -24 4 -35 9 -13 5 -14 9 -5 9 8 0 24 -4 35 -9z
m318 -7 c-7 -2 -19 -2 -25 0 -7 3 -2 5 12 5 14 0 19 -2 13 -5z m-333 -13 c18
-12 2 -12 -25 0 -13 6 -15 9 -5 9 8 0 22 -4 30 -9z m77 4 c-3 -3 -12 -4 -19
-1 -8 3 -5 6 6 6 11 1 17 -2 13 -5z m206 -1 c-7 -2 -21 -2 -30 0 -10 3 -4 5
12 5 17 0 24 -2 18 -5z m4642 -3 c-11 -5 -29 -8 -40 -8 -16 0 -15 2 5 8 34 11
60 11 35 0z m-4737 -7 c-16 -2 -40 -2 -55 0 -16 2 -3 4 27 4 30 0 43 -2 28 -4z
m-141 -9 c-3 -3 -12 -4 -19 -1 -8 3 -5 6 6 6 11 1 17 -2 13 -5z m4810 0 c-3
-3 -12 -4 -19 -1 -8 3 -5 6 6 6 11 1 17 -2 13 -5z m-5236 -41 c13 -16 12 -17
-3 -4 -17 13 -22 21 -14 21 2 0 10 -8 17 -17z m218 -405 c189 -213 549 -501
846 -678 438 -260 912 -436 1399 -520 l109 -18 161 29 c187 35 192 36 396 96
635 187 1278 570 1748 1040 l92 93 65 0 c54 0 65 -3 65 -16 0 -20 -248 -268
-385 -386 -407 -347 -918 -632 -1440 -801 -269 -87 -591 -160 -705 -159 -117
2 -516 93 -755 174 -218 74 -567 231 -735 331 -396 236 -700 476 -937 737 -65
72 -119 135 -121 141 -2 5 26 9 65 9 l68 0 64 -72z m3275 -227 l29 -69 51 -6
c28 -3 69 -6 91 -6 l40 -1 -22 -18 c-12 -10 -43 -37 -69 -60 l-48 -42 17 -67
c9 -37 17 -73 17 -79 0 -7 -28 5 -62 27 -35 22 -70 40 -78 40 -8 0 -41 -16
-73 -36 -32 -20 -61 -34 -64 -31 -3 4 4 36 15 72 l20 67 -66 64 -67 63 51 1
c104 0 113 5 147 81 16 38 33 69 36 69 3 0 19 -31 35 -69z m-1730 -10 l35 -69
83 -7 82 -7 -34 -32 c-19 -17 -50 -43 -68 -57 l-33 -25 20 -74 c12 -40 19 -76
16 -78 -2 -3 -34 14 -70 37 l-66 41 -70 -41 c-38 -23 -72 -40 -74 -37 -2 2 5
37 15 78 l19 75 -62 57 -62 57 56 1 c96 0 114 7 129 48 22 61 40 102 45 102 3
0 20 -31 39 -69z m862 -55 c30 -63 54 -119 54 -125 0 -21 51 -31 153 -31 56 0
107 -4 113 -8 7 -4 -27 -37 -87 -86 -59 -46 -99 -86 -99 -96 0 -10 9 -46 19
-81 31 -100 53 -191 47 -196 -2 -2 -59 32 -126 77 -143 96 -127 96 -272 -10
-62 -46 -94 -64 -96 -54 -2 7 13 71 34 141 37 126 37 127 16 142 -157 121
-202 157 -202 164 0 4 61 7 135 7 158 0 139 -14 206 157 24 62 45 113 47 113
2 0 28 -51 58 -114z"/>
<path d="M5684 5304 c-19 -15 -19 -15 1 -6 11 5 27 12 35 15 13 5 13 6 -1 6
-8 1 -24 -6 -35 -15z"/>
<path d="M5636 5254 c-11 -29 -6 -61 12 -75 15 -13 16 -12 3 4 -9 11 -12 30
-8 52 6 37 3 45 -7 19z"/>
<path d="M6590 5200 c0 -5 8 -8 18 -8 9 1 34 -2 54 -5 20 -4 39 -3 42 1 2 4
-8 7 -22 8 -15 0 -42 3 -59 7 -18 3 -33 1 -33 -3z"/>
<path d="M6753 5189 c-10 -4 -22 -4 -28 -1 -5 3 -6 1 -2 -4 11 -12 40 -11 49
1 5 6 8 4 8 -5 0 -13 1 -13 10 0 7 11 10 11 10 2 0 -7 4 -10 10 -7 16 10 79
12 84 3 2 -5 3 -3 2 3 -2 14 -112 19 -143 8z"/>
<path d="M6910 5180 c0 -4 20 -7 45 -7 25 0 43 2 41 5 -9 8 -86 10 -86 2z"/>
<path d="M6036 5058 c3 -5 10 -6 15 -3 13 9 11 12 -6 12 -8 0 -12 -4 -9 -9z"/>
<path d="M5970 5046 c0 -2 8 -10 18 -17 15 -13 16 -12 3 4 -13 16 -21 21 -21
13z"/>
<path d="M5963 5015 c0 -8 4 -12 9 -9 5 3 6 10 3 15 -9 13 -12 11 -12 -6z"/>
<path d="M7720 4966 c0 -2 7 -7 16 -10 8 -3 12 -2 9 4 -6 10 -25 14 -25 6z"/>
<path d="M6096 4641 c-4 -6 -13 -8 -19 -4 -7 4 -6 0 2 -10 7 -9 10 -17 6 -17
-5 0 -1 -8 8 -17 8 -10 15 -20 15 -23 0 -3 6 -18 13 -33 9 -20 15 -24 22 -15
6 9 7 6 4 -9 -6 -28 18 -51 27 -27 4 9 4 19 1 22 -3 3 -5 0 -5 -6 0 -22 -15
-12 -16 11 -3 38 -10 77 -17 83 -3 3 -4 -11 -1 -32 3 -34 2 -36 -8 -19 -15 25
-17 35 -7 56 10 20 -14 58 -25 40z m17 -38 c-7 -18 -22 -7 -18 15 2 9 4 19 4
22 1 3 5 -1 10 -9 5 -8 7 -20 4 -28z"/>
<path d="M6186 4442 c-3 -5 1 -9 9 -9 8 0 12 4 9 9 -3 4 -7 8 -9 8 -2 0 -6 -4
-9 -8z"/>
<path d="M7140 4226 c0 -10 70 -146 75 -146 3 0 -11 33 -31 73 -38 74 -44 85
-44 73z"/>
<path d="M7850 3944 c-25 -40 -21 -55 7 -27 16 17 30 63 19 63 -3 0 -14 -16
-26 -36z"/>
<path d="M7687 3845 c63 -58 74 -58 15 0 -25 25 -49 45 -55 45 -5 0 13 -20 40
-45z"/>
<path d="M7715 3870 c27 -12 35 -12 35 0 0 6 -12 10 -27 9 -25 0 -26 -1 -8 -9z"/>
<path d="M7770 3837 c0 -9 7 -14 15 -13 20 3 20 20 1 24 -9 2 -16 -3 -16 -11z"/>
<path d="M7841 3807 c15 -12 29 -29 32 -37 4 -10 6 -8 6 7 1 12 -9 29 -21 37
-34 24 -47 18 -17 -7z"/>
<path d="M7635 3810 c3 -5 13 -10 21 -10 8 0 12 5 9 10 -3 6 -13 10 -21 10 -8
0 -12 -4 -9 -10z"/>
<path d="M7610 3778 c0 -2 9 -11 20 -21 11 -9 20 -13 20 -7 0 5 -9 14 -20 20
-11 6 -20 9 -20 8z"/>
<path d="M7870 3715 c-10 -13 -9 -15 9 -15 11 0 21 4 21 9 0 18 -18 21 -30 6z"/>
<path d="M3440 3440 c-8 -5 -12 -12 -9 -15 4 -3 12 1 19 10 14 17 11 19 -10 5z"/>
<path d="M7310 3710 c6 -11 13 -20 16 -20 2 0 0 9 -6 20 -6 11 -13 20 -16 20
-2 0 0 -9 6 -20z"/>
<path d="M7420 3391 c-20 -38 23 -96 45 -61 3 6 -4 10 -16 10 -19 0 -21 4 -16
35 6 39 3 44 -13 16z"/>
<path d="M7471 3189 c-1 -10 9 -19 24 -21 13 -3 22 -1 19 3 -3 5 -11 9 -19 9
-7 0 -16 6 -18 13 -4 7 -6 6 -6 -4z"/>
<path d="M7430 3167 c0 -14 6 -24 15 -24 11 0 12 4 4 13 -6 7 -8 18 -4 24 3 5
1 10 -4 10 -6 0 -11 -10 -11 -23z"/>
<path d="M7840 3150 c-8 -5 -10 -10 -5 -10 6 0 17 5 25 10 8 5 11 10 5 10 -5
0 -17 -5 -25 -10z"/>
<path d="M7657 3085 c-16 -12 -16 -13 3 -18 11 -3 20 -12 20 -20 0 -8 6 -17
14 -20 18 -7 134 47 120 56 -6 3 -27 -2 -46 -13 -26 -14 -38 -16 -47 -7 -8 8
-11 8 -11 -1 0 -7 -4 -12 -10 -12 -5 0 -10 9 -10 19 0 26 -11 32 -33 16z"/>
<path d="M2905 3470 c3 -5 8 -10 11 -10 2 0 4 5 4 10 0 6 -5 10 -11 10 -5 0
-7 -4 -4 -10z"/>
<path d="M5335 3610 c4 -6 11 -8 16 -5 14 9 11 15 -7 15 -8 0 -12 -5 -9 -10z"/>
<path d="M3025 3511 c-3 -5 -1 -12 4 -15 5 -3 11 1 15 9 6 16 -9 21 -19 6z"/>
<path d="M2970 3458 c0 -36 81 -108 122 -108 29 0 94 37 84 47 -3 3 -17 -4
-32 -16 -15 -11 -34 -21 -43 -21 -10 1 -6 6 12 16 17 9 27 22 26 37 0 14 -2
17 -6 7 -8 -24 -34 -40 -63 -40 -29 0 -60 28 -84 75 l-16 30 0 -27z"/>
<path d="M8005 3389 c-4 -6 -5 -12 -2 -15 2 -3 7 2 10 11 7 17 1 20 -8 4z"/>
<path d="M7982 3338 c-14 -14 -16 -28 -3 -28 5 0 11 9 14 20 6 23 5 24 -11 8z"/>
<path d="M8005 3290 c-3 -5 -1 -10 4 -10 6 0 11 5 11 10 0 6 -2 10 -4 10 -3 0
-8 -4 -11 -10z"/>
<path d="M3590 2975 c-11 -13 -10 -14 4 -9 9 3 16 10 16 15 0 13 -6 11 -20 -6z"/>
<path d="M2496 2934 c-9 -24 -7 -31 5 -11 6 9 15 14 21 11 7 -4 8 -2 4 4 -10
17 -23 15 -30 -4z"/>
<path d="M3416 2731 c-4 -5 -2 -12 3 -15 5 -4 12 -2 15 3 4 5 2 12 -3 15 -5 4
-12 2 -15 -3z"/>
<path d="M2498 5003 c7 -3 16 -2 19 1 4 3 -2 6 -13 5 -11 0 -14 -3 -6 -6z"/>
<path d="M2448 4993 c7 -3 16 -2 19 1 4 3 -2 6 -13 5 -11 0 -14 -3 -6 -6z"/>
<path d="M2408 4983 c7 -3 16 -2 19 1 4 3 -2 6 -13 5 -11 0 -14 -3 -6 -6z"/>
</g>
</svg>
